<svg xmlns="http://www.w3.org/2000/svg" width="11" height="11" viewBox="0 0 11 11" fill="none">
  <path d="M5.6978 0.504444H5.92483C5.18271 1.16762 4.7057 2.05991 4.57671 3.02623C4.44771 3.99255 4.67489 4.97179 5.21876 5.79374C5.76263 6.61568 6.58879 7.22836 7.55364 7.52526C8.51849 7.82216 9.56101 7.78453 10.5 7.41889C10.1388 8.25472 9.54845 8.98057 8.79193 9.51903C8.03541 10.0575 7.14109 10.3884 6.20437 10.4763C5.26765 10.5643 4.32367 10.4061 3.47312 10.0186C2.62257 9.63103 1.89736 9.02872 1.37484 8.27589C0.852319 7.52305 0.552094 6.64793 0.506189 5.74387C0.460284 4.83981 0.67042 3.94072 1.11418 3.14251C1.55794 2.34429 2.21869 1.6769 3.02593 1.21152C3.83317 0.746135 4.75663 0.500218 5.6978 0.5V0.504444Z" stroke="currentColor" stroke-linecap="round" stroke-linejoin="round"/>
</svg>