<svg xmlns="http://www.w3.org/2000/svg" width="13" height="13" viewBox="0 0 13 13" fill="none">
  <path d="M0.5 6.5H1.16667M6.5 0.5V1.16667M11.8333 6.5H12.5M6.5 11.8333V12.5M2.23333 2.23333L2.7 2.7M10.7667 2.23333L10.3 2.7M10.3 10.3L10.7667 10.7667M2.7 10.3L2.23333 10.7667M3.83333 6.5C3.83333 7.20724 4.11428 7.88552 4.61438 8.38562C5.11448 8.88572 5.79276 9.16667 6.5 9.16667C7.20724 9.16667 7.88552 8.88572 8.38562 8.38562C8.88572 7.88552 9.16667 7.20724 9.16667 6.5C9.16667 5.79276 8.88572 5.11448 8.38562 4.61438C7.88552 4.11428 7.20724 3.83333 6.5 3.83333C5.79276 3.83333 5.11448 4.11428 4.61438 4.61438C4.11428 5.11448 3.83333 5.79276 3.83333 6.5Z" stroke="currentColor" stroke-linecap="round" stroke-linejoin="round"/>
</svg>