<svg xmlns="http://www.w3.org/2000/svg" width="13" height="23" viewBox="0 0 13 23" fill="none">
  <path d="M10.62 0C10.38 0 10.145 0.0500011 9.915 0.15C9.685 0.25 9.5 0.370001 9.36 0.51L0.48 9.51C0.16 9.83 0 10.285 0 10.875C0 11.465 0.16 11.92 0.48 12.24L9.36 21.87C9.58 22.09 9.785 22.25 9.975 22.35C10.165 22.45 10.38 22.5 10.62 22.5C11.2 22.5 11.66 22.33 12 21.99C12.18 21.81 12.33 21.595 12.45 21.345C12.57 21.095 12.63 20.85 12.63 20.61C12.63 20.03 12.42 19.58 12 19.26L4.38 10.86L12 3C12.32 2.68 12.48 2.3 12.48 1.86C12.48 1.28 12.32 0.83 12 0.51C11.74 0.310001 11.51 0.175001 11.31 0.105001C11.11 0.0349998 10.88 0 10.62 0Z" fill="#0D34E9"/>
</svg>