<svg xmlns="http://www.w3.org/2000/svg" width="60" height="60" viewBox="0 0 60 60" fill="none">
  <path d="M10.0002 27.5C10.6374 27.5007 11.2502 27.7447 11.7136 28.1821C12.1769 28.6195 12.4557 29.2174 12.4931 29.8535C12.5304 30.4896 12.3235 31.1159 11.9145 31.6046C11.5055 32.0932 10.9254 32.4072 10.2927 32.4825L10.0002 32.5H7.50016C6.86296 32.4993 6.25008 32.2553 5.78674 31.8179C5.3234 31.3805 5.04457 30.7826 5.00723 30.1465C4.96989 29.5104 5.17685 28.8841 5.58582 28.3954C5.9948 27.9068 6.57492 27.5928 7.20766 27.5175L7.50016 27.5H10.0002ZM30.0002 5C30.6125 5.00008 31.2035 5.22489 31.6611 5.63179C32.1187 6.03869 32.411 6.59937 32.4827 7.2075L32.5002 7.5V10C32.4995 10.6372 32.2555 11.2501 31.818 11.7134C31.3806 12.1768 30.7828 12.4556 30.1467 12.4929C29.5106 12.5303 28.8842 12.3233 28.3956 11.9143C27.9069 11.5054 27.5929 10.9252 27.5177 10.2925L27.5002 10V7.5C27.5002 6.83696 27.7636 6.20107 28.2324 5.73223C28.7012 5.26339 29.3371 5 30.0002 5ZM52.5002 27.5C53.1374 27.5007 53.7502 27.7447 54.2136 28.1821C54.6769 28.6195 54.9557 29.2174 54.9931 29.8535C55.0304 30.4896 54.8235 31.1159 54.4145 31.6046C54.0055 32.0932 53.4254 32.4072 52.7927 32.4825L52.5002 32.5H50.0002C49.363 32.4993 48.7501 32.2553 48.2867 31.8179C47.8234 31.3805 47.5446 30.7826 47.5072 30.1465C47.4699 29.5104 47.6768 28.8841 48.0858 28.3954C48.4948 27.9068 49.0749 27.5928 49.7077 27.5175L50.0002 27.5H52.5002ZM12.2327 12.2325C12.6631 11.8021 13.2359 11.5435 13.8435 11.5053C14.451 11.4671 15.0517 11.6519 15.5327 12.025L15.7677 12.2325L17.5177 13.9825C17.966 14.4324 18.2263 15.0361 18.2457 15.671C18.2651 16.3058 18.0421 16.9243 17.622 17.4007C17.202 17.8771 16.6163 18.1758 15.984 18.236C15.3517 18.2962 14.7201 18.1135 14.2177 17.725L13.9827 17.5175L12.2327 15.7675C11.764 15.2987 11.5007 14.6629 11.5007 14C11.5007 13.3371 11.764 12.7013 12.2327 12.2325ZM44.2327 12.2325C44.6826 11.7841 45.2862 11.5238 45.9211 11.5044C46.556 11.485 47.1744 11.708 47.6509 12.1281C48.1273 12.5482 48.4259 13.1339 48.4862 13.7662C48.5464 14.3985 48.3637 15.03 47.9752 15.5325L47.7677 15.7675L46.0177 17.5175C45.5678 17.9659 44.9641 18.2262 44.3292 18.2456C43.6943 18.265 43.0759 18.042 42.5995 17.6219C42.123 17.2018 41.8244 16.6161 41.7642 15.9838C41.7039 15.3515 41.8866 14.72 42.2752 14.2175L42.4827 13.9825L44.2327 12.2325ZM35.0002 45C35.6632 45 36.2991 45.2634 36.7679 45.7322C37.2368 46.2011 37.5002 46.837 37.5002 47.5C37.5002 49.4891 36.71 51.3968 35.3035 52.8033C33.8969 54.2098 31.9893 55 30.0002 55C28.011 55 26.1034 54.2098 24.6969 52.8033C23.2903 51.3968 22.5002 49.4891 22.5002 47.5C22.5002 46.8877 22.725 46.2967 23.1319 45.8391C23.5388 45.3815 24.0995 45.0891 24.7077 45.0175L25.0002 45H35.0002ZM30.0002 15C33.1484 15 36.2168 15.9906 38.7708 17.8314C41.3248 19.6722 43.2349 22.2699 44.2304 25.2566C45.226 28.2433 45.2566 31.4675 44.3179 34.4725C43.3792 37.4775 41.5187 40.1111 39.0002 42C38.6556 42.2588 38.25 42.4242 37.8227 42.48L37.5002 42.5H22.5002C21.9592 42.5 21.4329 42.3246 21.0002 42C18.4816 40.1111 16.6212 37.4775 15.6825 34.4725C14.7438 31.4675 14.7744 28.2433 15.7699 25.2566C16.7655 22.2699 18.6755 19.6722 21.2295 17.8314C23.7835 15.9906 26.8519 15 30.0002 15Z" fill="white"/>
</svg>