<svg xmlns="http://www.w3.org/2000/svg" width="40" height="40" viewBox="0 0 40 40" fill="none">
  <path d="M3.33366 19.9987C3.33366 10.7937 10.7953 3.33203 20.0003 3.33203C29.2053 3.33203 36.667 10.7937 36.667 19.9987C36.667 29.2037 29.2053 36.6654 20.0003 36.6654C10.7953 36.6654 3.33366 29.2037 3.33366 19.9987ZM19.8887 12.8037C19.7919 12.9004 19.7152 13.0153 19.6628 13.1417C19.6104 13.2681 19.5835 13.4035 19.5835 13.5404C19.5835 13.6772 19.6104 13.8127 19.6628 13.9391C19.7152 14.0655 19.7919 14.1803 19.8887 14.277L24.5687 18.957L12.7087 18.957C12.4324 18.957 12.1674 19.0668 11.9721 19.2621C11.7767 19.4575 11.667 19.7224 11.667 19.9987C11.667 20.275 11.7767 20.5399 11.9721 20.7353C12.1674 20.9306 12.4324 21.0404 12.7087 21.0404L24.5687 21.0404L19.8887 25.7204C19.6933 25.9157 19.5835 26.1807 19.5835 26.457C19.5835 26.7333 19.6933 26.9983 19.8887 27.1937C20.084 27.3891 20.349 27.4988 20.6253 27.4988C20.9016 27.4988 21.1666 27.3891 21.362 27.1937L27.8203 20.7354C27.9171 20.6386 27.9938 20.5238 28.0462 20.3974C28.0986 20.271 28.1255 20.1355 28.1255 19.9987C28.1255 19.8619 28.0986 19.7264 28.0462 19.6C27.9938 19.4736 27.9171 19.3588 27.8203 19.262L21.362 12.8037C21.2653 12.7069 21.1504 12.6302 21.024 12.5778C20.8976 12.5255 20.7621 12.4985 20.6253 12.4985C20.4885 12.4985 20.353 12.5255 20.2266 12.5778C20.1002 12.6302 19.9854 12.7069 19.8887 12.8037Z" fill="#F45D23"/>
</svg>