<svg width="30" height="30" viewBox="0 0 30 30" fill="none" xmlns="http://www.w3.org/2000/svg">
<path d="M24.3752 11.25C27.4221 11.25 30.0002 13.8281 30.0002 16.875V24.375C30.0002 27.4805 27.4221 30 24.3752 30H5.6252C2.51973 30 0.000195503 27.4805 0.000195503 24.375V16.875C0.000195503 13.8281 2.51973 11.25 5.6252 11.25H13.1252C13.1252 12.7148 13.6525 14.0625 14.5314 15H9.3752C6.26973 15 3.7502 17.5781 3.7502 20.625C3.7502 23.7305 6.26973 26.25 9.3752 26.25H20.6252V26.3086C23.7307 26.3086 26.2502 23.7891 26.2502 20.6836C26.2502 18.2227 24.6682 16.1719 22.5588 15.4102C23.6721 14.3555 24.3166 12.8906 24.3752 11.25ZM18.7502 15C16.6408 15 15.0002 13.3594 15.0002 11.25C15.0002 9.19922 16.6408 7.5 18.7502 7.5C20.801 7.5 22.5002 9.19922 22.5002 11.25C22.5002 13.3594 20.801 15 18.7502 15ZM12.1877 5.625C10.6057 5.625 9.3752 4.39453 9.3752 2.8125C9.3752 1.28906 10.6057 0 12.1877 0C13.7111 0 15.0002 1.28906 15.0002 2.8125C15.0002 4.39453 13.7111 5.625 12.1877 5.625ZM22.5002 3.75C21.4455 3.75 20.6252 2.92969 20.6252 1.875C20.6252 0.878906 21.4455 0 22.5002 0C23.4963 0 24.3752 0.878906 24.3752 1.875C24.3752 2.92969 23.4963 3.75 22.5002 3.75ZM9.3752 16.875H20.6252C22.676 16.875 24.3752 18.5742 24.3752 20.625C24.3752 22.7344 22.676 24.375 20.6252 24.375H9.3752C7.26582 24.375 5.6252 22.7344 5.6252 20.625C5.6252 18.5742 7.26582 16.875 9.3752 16.875Z" fill="#0D34E9"/>
</svg>
