<svg width="24" height="24" viewBox="0 0 24 24" fill="none" xmlns="http://www.w3.org/2000/svg">
<path d="M22.0312 0.046875C22.1719 0 22.3125 0 22.5 0C23.2969 0 23.9531 0.65625 24 1.45312V17.9531C24 19.6406 21.9844 20.9531 19.5 20.9531C17.0156 20.9531 15 19.6406 15 17.9531C15 16.3125 17.0156 14.9531 19.5 14.9531C20.0156 15 20.4844 15.0469 21 15.1406V6.51562L9 10.0312V20.9531C9 22.6406 6.98438 23.9531 4.5 23.9531C2.01562 23.9531 0 22.6406 0 20.9531C0 19.3125 2.01562 17.9531 4.5 17.9531C5.01562 18 5.48438 18.0469 6 18.1406V5.90625C6 5.25 6.42188 4.6875 7.03125 4.45312L22.0312 0.046875Z" fill="#0D34E9"/>
</svg>
