<svg xmlns="http://www.w3.org/2000/svg" width="40" height="43" viewBox="0 0 40 43" fill="none">
  <path d="M31.6667 0C31.4474 4.60917e-05 31.2303 0.0430181 31.0278 0.126454C30.8254 0.20989 30.6415 0.33215 30.4867 0.486231L27.6467 3.30769H15C14.558 3.30769 14.134 3.48194 13.8215 3.79209C13.5089 4.10225 13.3333 4.52291 13.3333 4.96154C13.3333 5.40017 13.5089 5.82083 13.8215 6.13098C14.134 6.44114 14.558 6.61538 15 6.61538H16.6667V11.5769C16.6667 12.0156 16.8423 12.4362 17.1548 12.7464C17.4674 13.0565 17.8913 13.2308 18.3333 13.2308C18.7754 13.2308 19.1993 13.0565 19.5118 12.7464C19.8244 12.4362 20 12.0156 20 11.5769V6.61538H30V41.3462C30 42.2624 30.7433 43 31.6667 43H35C35.9233 43 36.6667 42.2624 36.6667 41.3462V6.61538H38.3333C38.7754 6.61538 39.1993 6.44114 39.5118 6.13098C39.8244 5.82083 40 5.40017 40 4.96154V1.65385C40 1.21522 39.8244 0.794557 39.5118 0.4844C39.1993 0.174244 38.7754 0 38.3333 0H31.6667ZM1.66667 6.61538C1.22464 6.61538 0.800716 6.78963 0.488156 7.09979C0.175595 7.40994 0 7.8306 0 8.26923V41.3462C0 41.7848 0.175595 42.2054 0.488156 42.5156C0.800716 42.8258 1.22464 43 1.66667 43H21.6667C22.1087 43 22.5326 42.8258 22.8452 42.5156C23.1577 42.2054 23.3333 41.7848 23.3333 41.3462V18.1923C23.3333 17.7537 23.1577 17.333 22.8452 17.0229C22.5326 16.7127 22.1087 16.5385 21.6667 16.5385C21.2246 16.5385 20.8007 16.7127 20.4882 17.0229C20.1756 17.333 20 17.7537 20 18.1923V19.8462H13.3333V11.5769C13.3333 11.1383 13.1577 10.7176 12.8452 10.4075C12.5326 10.0973 12.1087 9.92308 11.6667 9.92308H3.33333V8.26923C3.33333 7.8306 3.15774 7.40994 2.84518 7.09979C2.53262 6.78963 2.10869 6.61538 1.66667 6.61538ZM3.33333 13.2308H10V19.8462H3.33333V13.2308ZM3.33333 23.1538H10V29.7692H3.33333V23.1538ZM13.3333 23.1538H20V29.7692H13.3333V23.1538ZM3.33333 33.0769H10V39.6923H3.33333V33.0769ZM13.3333 33.0769H20V39.6923H13.3333V33.0769Z" fill="#0D34E9"/>
</svg>