<svg xmlns="http://www.w3.org/2000/svg" width="8" height="14" viewBox="0 0 8 14" fill="none">
  <path d="M6.66667 4.33333H8C8 2.442 6.16333 1.57933 4.66667 1.38067V0H3.33333V1.38067C1.83667 1.57933 0 2.442 0 4.33333C0 6.13733 1.77733 7.07533 3.33333 7.28667V10.6C2.368 10.4327 1.33333 9.91733 1.33333 9H0C0 10.726 1.61667 11.746 3.33333 11.9573V13.3333H4.66667V11.9533C6.16333 11.7547 8 10.8913 8 9C8 7.10867 6.16333 6.246 4.66667 6.04733V2.73333C5.55333 2.89267 6.66667 3.36067 6.66667 4.33333ZM1.33333 4.33333C1.33333 3.36067 2.44667 2.89267 3.33333 2.73333V5.93267C2.41933 5.764 1.33333 5.26467 1.33333 4.33333ZM6.66667 9C6.66667 9.97267 5.55333 10.4407 4.66667 10.6V7.4C5.55333 7.55933 6.66667 8.02733 6.66667 9Z" fill="white"/>
</svg>