<svg xmlns="http://www.w3.org/2000/svg" width="40" height="42" viewBox="0 0 40 42" fill="none">
  <path d="M19.3575 18.3992C18.9827 18.5899 18.7175 19.2233 18.1873 20.4878L17.737 21.5685C17.5793 21.9385 17.5015 22.1247 17.3758 22.2677C17.2646 22.3919 17.1273 22.4904 16.9735 22.5561C16.7998 22.6332 16.5987 22.6469 16.1941 22.6809L15.0193 22.774C13.6455 22.883 12.9575 22.9375 12.6604 23.2349C12.5336 23.3612 12.4385 23.5154 12.3829 23.685C12.3273 23.8546 12.3128 24.0348 12.3404 24.2111C12.4044 24.6265 12.9278 25.0738 13.977 25.9637L14.8707 26.7243C15.1793 26.9876 15.3324 27.117 15.4284 27.2805C15.5144 27.4239 15.5674 27.5843 15.5838 27.7504C15.6021 27.9366 15.5541 28.1341 15.4604 28.5246L15.1861 29.662C14.8661 30.9969 14.7061 31.6621 14.8981 32.0344C14.9799 32.194 15.0985 32.3321 15.2443 32.4375C15.3901 32.5429 15.5589 32.6124 15.737 32.6406C16.153 32.7064 16.7427 32.3477 17.9175 31.6349L18.9233 31.0242C19.2707 30.8153 19.4421 30.7086 19.6273 30.6677C19.7913 30.6313 19.9615 30.6313 20.1255 30.6677C20.3084 30.7086 20.4844 30.8153 20.8295 31.0242L21.8353 31.6349C23.0124 32.3477 23.5998 32.7064 24.0158 32.6406C24.1939 32.6124 24.3627 32.5429 24.5085 32.4375C24.6543 32.3321 24.7729 32.194 24.8547 32.0344C25.0467 31.6621 24.8867 30.9969 24.5667 29.662L24.2924 28.5269C24.201 28.1341 24.1507 27.9366 24.169 27.7504C24.1854 27.5843 24.2384 27.4239 24.3244 27.2805C24.4204 27.117 24.5758 26.9854 24.8821 26.7243L25.7758 25.9637C26.825 25.0715 27.3484 24.6243 27.4147 24.2134C27.4427 24.0367 27.4283 23.8561 27.3727 23.686C27.3171 23.516 27.2218 23.3614 27.0947 23.2349C26.7975 22.9397 26.1095 22.883 24.7335 22.774L23.5587 22.6809C23.1541 22.6491 22.953 22.631 22.7793 22.5561C22.6255 22.4904 22.4882 22.3919 22.377 22.2677C22.2513 22.1247 22.1713 21.9385 22.0181 21.5685L21.5655 20.4878C21.0353 19.2233 20.7701 18.5899 20.3953 18.3992C20.2346 18.3179 20.0568 18.2755 19.8764 18.2755C19.696 18.2755 19.5182 18.3179 19.3575 18.3992Z" fill="#0D34E9"/>
  <path d="M16.2674 0H23.7326C26.2286 0 28.208 -1.8268e-07 29.8011 0.129405C31.4331 0.261081 32.8114 0.538054 34.0731 1.17373C36.1158 2.20862 37.776 3.85928 38.816 5.88908C39.4583 7.13773 39.7371 8.50897 39.8697 10.1299C40 11.7123 40 13.6784 40 16.1575V25.8425C40 28.3216 40 30.2877 39.8697 31.8701C39.7371 33.491 39.4583 34.86 38.8183 36.1132C37.777 38.1417 36.1159 39.7907 34.0731 40.824C32.8114 41.4619 31.4331 41.7389 29.8011 41.8706C28.208 42 26.2286 42 23.7326 42H16.2674C13.7714 42 11.792 42 10.1989 41.8706C8.56686 41.7389 7.18857 41.4619 5.92914 40.8263C3.88603 39.7924 2.22495 38.1425 1.184 36.1132C0.541714 34.86 0.262857 33.491 0.130286 31.8701C-1.83923e-07 30.2877 0 28.3216 0 25.8425V16.1575C0 13.6784 -1.83923e-07 11.7123 0.130286 10.1299C0.262857 8.50897 0.541714 7.14 1.18171 5.88908C2.22326 3.85943 3.88518 2.20953 5.92914 1.176C7.18629 0.538054 8.56686 0.261081 10.1989 0.129405C11.792 -1.8268e-07 13.7714 0 16.2674 0ZM3.42857 15.3243V25.7676C3.42857 28.3398 3.42857 30.1651 3.54743 31.5931C3.66171 33.0006 3.88343 33.8747 4.23771 34.5671C4.94985 35.9551 6.08602 37.0836 7.48343 37.7909C8.18057 38.1428 9.06057 38.3608 10.4777 38.4765C11.9177 38.5923 13.7554 38.5946 16.3429 38.5946H23.6571C26.2469 38.5946 28.0846 38.5946 29.5223 38.4765C30.9394 38.363 31.8194 38.1428 32.5166 37.7909C33.914 37.0836 35.0501 35.9551 35.7623 34.5671C36.1166 33.8747 36.336 33.0006 36.4526 31.5931C36.5691 30.1628 36.5714 28.3375 36.5714 25.7676V15.3243H3.42857ZM14.2857 6.81081C13.6795 6.81081 13.0981 7.05 12.6695 7.47576C12.2408 7.90152 12 8.47897 12 9.08108C12 9.68319 12.2408 10.2606 12.6695 10.6864C13.0981 11.1122 13.6795 11.3514 14.2857 11.3514H25.7143C26.3205 11.3514 26.9019 11.1122 27.3305 10.6864C27.7592 10.2606 28 9.68319 28 9.08108C28 8.47897 27.7592 7.90152 27.3305 7.47576C26.9019 7.05 26.3205 6.81081 25.7143 6.81081H14.2857Z" fill="#0D34E9"/>
</svg>