<svg width="27" height="18" viewBox="0 0 27 18" fill="none" xmlns="http://www.w3.org/2000/svg">
<path d="M6 4.5H21V13.5H6V4.5ZM24.75 9C24.75 10.2656 25.7344 11.25 27 11.25V15.75C27 17.0156 25.9688 18 24.75 18H2.25C0.984375 18 0 17.0156 0 15.75V11.25C1.21875 11.25 2.25 10.2656 2.25 9C2.25 7.78125 1.21875 6.75 0 6.75V2.25C0 1.03125 0.984375 0 2.25 0H24.75C25.9688 0 27 1.03125 27 2.25V6.75C25.7344 6.75 24.75 7.78125 24.75 9ZM22.5 4.125C22.5 3.51562 21.9844 3 21.375 3H5.625C4.96875 3 4.5 3.51562 4.5 4.125V13.875C4.5 14.5312 4.96875 15 5.625 15H21.375C21.9844 15 22.5 14.5312 22.5 13.875V4.125Z" fill="#0D34E9"/>
</svg>
