<svg width="28" height="21" viewBox="0 0 28 21" fill="none" xmlns="http://www.w3.org/2000/svg">
<path d="M13.1719 5.4375C13.2656 5.34375 13.4062 5.29688 13.5469 5.29688C13.6406 5.29688 13.7812 5.34375 13.875 5.4375L22.5469 12.5156V20.2031C22.5469 20.625 22.1719 20.9531 21.7969 20.9531H16.5C16.125 20.9531 15.75 20.625 15.75 20.2031V15.7031C15.75 15.3281 15.4219 14.9531 15 14.9531H12C11.625 14.9531 11.25 15.3281 11.25 15.7031V20.2031C11.25 20.625 10.9219 20.9531 10.5469 20.9531H5.29688C4.875 20.9531 4.54688 20.625 4.54688 20.2031V12.5625L13.1719 5.4375ZM26.8125 10.2656C26.9531 10.3594 27.0469 10.5469 27.0469 10.6875C27.0469 10.8281 27 10.9688 26.9062 11.0625L25.6875 12.5156C25.5938 12.6562 25.4531 12.7031 25.2656 12.7031C25.125 12.7031 24.9844 12.6562 24.8906 12.5625L13.875 3.51562C13.7812 3.42188 13.6406 3.375 13.5469 3.375C13.4062 3.375 13.2656 3.42188 13.1719 3.51562L2.15625 12.5625C2.0625 12.6562 1.92188 12.7031 1.78125 12.7031C1.59375 12.7031 1.45312 12.6562 1.35938 12.5156L0.140625 11.0625C0.09375 10.9688 0 10.8281 0 10.6875C0 10.5469 0.09375 10.3594 0.234375 10.2656L12.0938 0.46875C12.4688 0.1875 12.9844 0 13.5469 0C14.0625 0 14.5781 0.1875 14.9531 0.46875L19.1719 3.9375V0.5625C19.1719 0.234375 19.4062 0 19.7344 0H22.3594C22.6406 0 22.9219 0.234375 22.9219 0.5625V7.03125L26.8125 10.2656Z" fill="#0D34E9"/>
</svg>
