<svg width="160" height="31" viewBox="0 0 160 31" fill="none" xmlns="http://www.w3.org/2000/svg">
<path d="M15.0022 2.27764L16.5875 0.692383L21.9617 6.10753L16.7635 9.37224L13.4405 7.28501L11.9817 9.01528L16.7635 12.0185L23.4206 7.83656L27.7338 12.9518L16.7635 19.8381L7.66969 14.1292L6.21334 15.8558L16.7635 22.4806L29.1877 14.6758L33.5059 19.7972L16.7635 30.3078L0 19.7836L1.4328 18.093L1.46998 18.1153H1.47122L16.7635 27.7173L30.2003 19.2804L28.7415 17.5501L16.7635 25.0711L2.90774 16.3739L7.22349 11.255L16.7635 17.2477L24.4282 12.4349L22.9731 10.7096L16.7635 14.6089L8.67736 9.53089L12.9943 4.41197L16.7635 6.78179L18.6586 5.59192L15.0022 2.27764Z" fill="#E8EAF6"/>
<path d="M152.561 6.10352C153.866 6.10352 154.911 7.15581 154.911 8.46838C154.911 9.75741 153.854 10.8035 152.553 10.8023C151.253 10.8023 150.21 9.74749 150.211 8.43492C150.212 7.15085 151.268 6.10352 152.561 6.10352ZM154.425 8.45723C154.429 7.4322 153.595 6.5931 152.566 6.58814C151.54 6.58318 150.701 7.41857 150.696 8.44979C150.691 9.47482 151.527 10.3114 152.561 10.3164C153.58 10.3214 154.421 9.48101 154.424 8.45723H154.425Z" fill="#E8EAF6"/>
<path d="M152.067 8.66628V9.60826H151.65V7.29545C151.669 7.29545 151.688 7.29297 151.706 7.29297C152.028 7.29297 152.352 7.29297 152.674 7.29297C152.813 7.29297 152.951 7.3066 153.081 7.36114C153.335 7.46773 153.456 7.66852 153.47 7.93624C153.485 8.24486 153.358 8.44566 153.076 8.57828C153.07 8.58076 153.065 8.58447 153.053 8.59067C153.187 8.9278 153.32 9.26493 153.457 9.61322C153.427 9.61322 153.404 9.61322 153.382 9.61322C153.278 9.61322 153.174 9.61198 153.07 9.61322C153.03 9.61322 153.01 9.6033 152.996 9.56364C152.89 9.27609 152.781 8.98853 152.672 8.70222C152.663 8.68115 152.661 8.6576 152.626 8.6576C152.445 8.66008 152.264 8.65884 152.083 8.66008C152.08 8.66008 152.077 8.66256 152.067 8.66628ZM152.071 8.32047C152.082 8.32171 152.09 8.32295 152.099 8.32295C152.274 8.32295 152.447 8.32543 152.621 8.32047C152.688 8.31799 152.757 8.30684 152.822 8.28577C152.948 8.24239 153.018 8.14819 153.032 8.01557C153.047 7.86931 152.999 7.75404 152.868 7.67968C152.791 7.6363 152.706 7.62514 152.62 7.62514C152.452 7.62514 152.285 7.62514 152.118 7.62514C152.103 7.62514 152.088 7.62638 152.071 7.62762V8.32047Z" fill="#E8EAF6"/>
<path d="M42.0721 23.3269H37.9473V2.71484H42.0721V23.3281V23.3269Z" fill="#E8EAF6"/>
<path d="M47.303 23.3253H43.3789V7.93009H44.3271L45.6211 9.42487C46.2532 8.84976 46.9696 8.40728 47.7703 8.09618C48.5709 7.78508 49.4063 7.62891 50.2789 7.62891C51.2184 7.62891 52.1046 7.80863 52.9387 8.16807C53.7717 8.52751 54.5004 9.02205 55.1239 9.64921C55.7473 10.2764 56.2381 11.0101 56.5976 11.848C56.957 12.6871 57.1367 13.5807 57.1367 14.5289V23.3265H53.2127V14.5289C53.2127 14.1261 53.1358 13.7443 52.9821 13.3861C52.8284 13.0267 52.6177 12.7131 52.3488 12.4442C52.081 12.1764 51.7687 11.9657 51.4142 11.812C51.0597 11.6596 50.6817 11.5815 50.2789 11.5815C49.8761 11.5815 49.4782 11.6584 49.1151 11.812C48.7507 11.9657 48.4346 12.1764 48.1656 12.4442C47.8979 12.7131 47.686 13.0267 47.5335 13.3861C47.3798 13.7456 47.303 14.1273 47.303 14.5289V23.3265V23.3253Z" fill="#E8EAF6"/>
<path d="M62.2241 23.325H58.2715V1.80566H62.2241V15.3751L68.0743 7.95829H72.5883L67.4855 14.3687L72.5883 23.325H68.0743L64.9546 17.7338L62.2228 21.3567V23.3262L62.2241 23.325Z" fill="#E8EAF6"/>
<path d="M81.8578 23.3266H72.888V19.4162H81.8578C82.1255 19.4162 82.3561 19.3207 82.5482 19.1299C82.7391 18.9378 82.8357 18.7085 82.8357 18.4395C82.8357 18.1705 82.7403 17.9797 82.5482 17.8929C82.3561 17.8061 82.1268 17.7628 81.8578 17.7628H77.7751C77.0946 17.7628 76.4576 17.6339 75.8639 17.3748C75.2689 17.1158 74.7521 16.7638 74.3108 16.3176C73.8696 15.8726 73.5226 15.352 73.2685 14.7583C73.0144 14.1646 72.8867 13.5276 72.8867 12.8471C72.8867 12.1666 73.0144 11.5283 73.2685 10.9346C73.5226 10.3409 73.8696 9.82409 74.3108 9.38285C74.7521 8.94284 75.2689 8.59456 75.8639 8.34047C76.4576 8.08638 77.0946 7.95996 77.7751 7.95996H85.7237V11.8704H77.7751C77.5074 11.8704 77.2768 11.9659 77.0847 12.158C76.8926 12.3501 76.7972 12.5794 76.7972 12.8483C76.7972 13.1173 76.8926 13.3627 77.0847 13.5598C77.2768 13.7556 77.5061 13.8548 77.7751 13.8548H81.8578C82.5284 13.8548 83.1605 13.9676 83.7554 14.1919C84.3491 14.4175 84.8672 14.7298 85.3084 15.1339C85.7484 15.5367 86.0992 16.0201 86.3582 16.5853C86.6173 17.1505 86.7462 17.769 86.7462 18.4395C86.7462 19.11 86.6173 19.7546 86.3582 20.3445C86.0992 20.9333 85.7497 21.4501 85.3084 21.8963C84.8672 22.3413 84.3503 22.692 83.7554 22.9461C83.1617 23.2002 82.5284 23.3266 81.8578 23.3266Z" fill="#E8EAF6"/>
<path d="M91.6057 23.325H87.6816V1.80566H91.6057V8.60528C92.0755 8.2508 92.5589 7.99919 93.0571 7.85045C93.5554 7.70172 94.0635 7.62735 94.5816 7.62735C95.5298 7.62735 96.4222 7.80707 97.2551 8.16651C98.0893 8.52595 98.8143 9.02049 99.4328 9.64766C100.051 10.2748 100.54 11.0086 100.899 11.8464C101.259 12.6855 101.438 13.5792 101.438 14.5274V23.325H97.4844V14.5274H97.5129C97.5129 14.1245 97.4361 13.7428 97.2824 13.3846C97.1287 13.0252 96.918 12.7116 96.649 12.4426C96.3813 12.1749 96.069 11.9642 95.7145 11.8105C95.36 11.658 94.982 11.58 94.5791 11.58C94.1763 11.58 93.7785 11.6568 93.4153 11.8105C93.0509 11.9642 92.7349 12.1749 92.4659 12.4426C92.1982 12.7116 91.9862 13.0252 91.8338 13.3846C91.6801 13.744 91.6032 14.1258 91.6032 14.5274V23.325H91.6057Z" fill="#E8EAF6"/>
<path d="M117.985 23.3292H117.036L115.511 21.2159C115.138 21.5518 114.743 21.8654 114.325 22.1579C113.909 22.4504 113.47 22.7045 113.01 22.9189C112.55 23.1358 112.078 23.3056 111.595 23.4296C111.111 23.5535 110.619 23.6167 110.122 23.6167C109.039 23.6167 108.021 23.4345 107.067 23.0701C106.112 22.7057 105.28 22.1765 104.566 21.4812C103.852 20.7858 103.288 19.9356 102.876 18.9291C102.464 17.9227 102.258 16.7775 102.258 15.4934C102.258 14.2948 102.464 13.1967 102.876 12.194C103.288 11.1925 103.852 10.3323 104.566 9.61344C105.28 8.89456 106.112 8.33681 107.067 7.93895C108.02 7.54108 109.038 7.34277 110.122 7.34277C110.62 7.34277 111.114 7.40475 111.602 7.52993C112.09 7.65388 112.565 7.82616 113.025 8.04678C113.485 8.2674 113.923 8.52645 114.34 8.82268C114.756 9.12014 115.147 9.44116 115.511 9.78573L117.036 7.96002H117.985V23.3267V23.3292ZM114.031 15.4959C114.031 14.9592 113.928 14.4386 113.721 13.9354C113.516 13.4322 113.236 12.9872 112.881 12.5993C112.527 12.2101 112.113 11.899 111.638 11.6647C111.163 11.4292 110.659 11.3127 110.122 11.3127C109.585 11.3127 109.08 11.4032 108.605 11.5854C108.13 11.7676 107.719 12.0353 107.369 12.391C107.02 12.7455 106.743 13.1843 106.543 13.7061C106.341 14.2291 106.24 14.8253 106.24 15.4959C106.24 16.1664 106.341 16.7638 106.543 17.2856C106.743 17.8087 107.02 18.2462 107.369 18.6007C107.719 18.9552 108.13 19.2241 108.605 19.4063C109.08 19.5885 109.584 19.679 110.122 19.679C110.66 19.679 111.164 19.5613 111.638 19.327C112.113 19.0915 112.527 18.7804 112.881 18.3925C113.236 18.0045 113.516 17.5583 113.721 17.0551C113.927 16.5519 114.031 16.0325 114.031 15.4959Z" fill="#E8EAF6"/>
<path d="M122.986 29.1935H119.033V7.93328H119.981L121.548 9.78749C121.903 9.45284 122.29 9.13678 122.712 8.83931C123.133 8.54309 123.572 8.28652 124.027 8.06962C124.482 7.85395 124.954 7.68415 125.442 7.5602C125.931 7.43626 126.424 7.37305 126.924 7.37305C128.006 7.37305 129.024 7.5664 129.978 7.95559C130.932 8.34353 131.765 8.89261 132.479 9.60034C133.193 10.3105 133.755 11.1658 134.168 12.1672C134.58 13.1687 134.787 14.278 134.787 15.4952C134.787 16.7123 134.58 17.8984 134.168 18.9086C133.757 19.92 133.193 20.7764 132.479 21.4817C131.765 22.1857 130.932 22.7249 129.978 23.0992C129.024 23.4735 128.006 23.6594 126.924 23.6594C126.579 23.6594 126.236 23.621 125.895 23.5441C125.555 23.4673 125.219 23.3644 124.888 23.2355C124.557 23.1054 124.233 22.9591 123.912 22.7967C123.591 22.6331 123.281 22.4658 122.985 22.2935V29.1923L122.986 29.1935ZM130.849 15.4952C130.849 14.8432 130.746 14.2594 130.54 13.7413C130.333 13.2232 130.054 12.7845 129.7 12.4263C129.345 12.0668 128.928 11.7917 128.449 11.6008C127.971 11.4099 127.463 11.3133 126.926 11.3133C126.389 11.3133 125.884 11.4087 125.409 11.6008C124.934 11.7929 124.52 12.0681 124.166 12.4263C123.811 12.7857 123.53 13.2245 123.325 13.7413C123.118 14.2594 123.016 14.8432 123.016 15.4952C123.016 16.1471 123.118 16.6887 123.325 17.2056C123.531 17.7224 123.811 18.1637 124.166 18.5281C124.52 18.8925 124.934 19.1751 125.409 19.3759C125.884 19.5779 126.388 19.6783 126.926 19.6783C127.464 19.6783 127.971 19.5779 128.449 19.3759C128.929 19.1751 129.345 18.8925 129.7 18.5281C130.054 18.1637 130.334 17.7224 130.54 17.2056C130.746 16.6875 130.849 16.1174 130.849 15.4952Z" fill="#E8EAF6"/>
<path d="M142.208 19.5613C142.362 19.6096 142.514 19.6406 142.668 19.6555C142.822 19.6691 142.974 19.6765 143.128 19.6765C143.511 19.6765 143.88 19.6232 144.235 19.5179C144.589 19.4125 144.923 19.2613 145.234 19.0642C145.545 18.8684 145.822 18.6292 146.067 18.3454C146.311 18.0628 146.51 17.7492 146.663 17.4034L149.538 20.2925C149.174 20.8106 148.755 21.2754 148.28 21.6869C147.806 22.0984 147.294 22.4479 146.742 22.7367C146.191 23.0243 145.612 23.2412 145.003 23.3912C144.395 23.5399 143.769 23.6143 143.128 23.6143C142.045 23.6143 141.027 23.4122 140.073 23.0106C139.118 22.6078 138.285 22.0476 137.572 21.3287C136.858 20.6098 136.294 19.7534 135.882 18.7618C135.469 17.7703 135.264 16.6795 135.264 15.4921C135.264 14.3048 135.469 13.1632 135.882 12.158C136.294 11.1516 136.858 10.2939 137.572 9.58494C138.285 8.87473 139.118 8.32442 140.073 7.93151C141.026 7.53861 142.043 7.34277 143.128 7.34277C143.77 7.34277 144.397 7.41962 145.011 7.57331C145.624 7.72576 146.207 7.94638 146.757 8.23394C147.309 8.52149 147.823 8.87349 148.303 9.29119C148.782 9.70764 149.204 10.1749 149.568 10.693L142.208 19.5613ZM144.221 11.4677C144.039 11.4007 143.859 11.3573 143.682 11.3375C143.505 11.3189 143.32 11.309 143.129 11.309C142.593 11.309 142.087 11.4082 141.612 11.604C141.137 11.8011 140.726 12.0812 140.376 12.4443C140.027 12.81 139.75 13.2475 139.55 13.7594C139.348 14.2725 139.247 14.8501 139.247 15.4921C139.247 15.6359 139.255 15.7983 139.268 15.9805C139.282 16.1627 139.307 16.3474 139.34 16.5345C139.374 16.7217 139.415 16.9002 139.462 17.0724C139.51 17.246 139.572 17.3984 139.649 17.5323L144.22 11.4664L144.221 11.4677Z" fill="#E8EAF6"/>
<path d="M39.416 29.373V25.9336H40.311C40.5739 25.9336 40.8086 25.9972 41.0163 26.1256C41.224 26.2541 41.3869 26.4383 41.5035 26.677C41.6202 26.917 41.6779 27.1895 41.6779 27.4944V27.8109C41.6779 28.1184 41.6202 28.3909 41.5048 28.6283C41.3894 28.8657 41.2266 29.0499 41.0163 29.1784C40.806 29.3081 40.5649 29.3717 40.2918 29.3717H39.4173L39.416 29.373ZM39.6866 26.1788V29.1265H40.2931C40.6303 29.1265 40.9009 29.0058 41.1048 28.7658C41.3086 28.5258 41.4099 28.2001 41.4099 27.7902V27.4879C41.4099 27.0922 41.3099 26.7756 41.1086 26.5369C40.9073 26.2982 40.6431 26.1788 40.3149 26.1775H39.6866V26.1788Z" fill="#E8EAF6"/>
<path d="M48.6322 27.724H47.1358V29.1278H48.8566V29.373H46.8652V25.9336H48.845V26.1788H47.1358V27.4775H48.6322V27.7227V27.724Z" fill="#E8EAF6"/>
<path d="M55.7376 28.5279C55.7376 28.3372 55.6748 28.1867 55.5504 28.0751C55.426 27.9635 55.1978 27.8584 54.8669 27.7585C54.5361 27.6586 54.2938 27.5497 54.1412 27.4316C53.9245 27.2642 53.8155 27.0463 53.8155 26.7751C53.8155 26.504 53.9168 26.2977 54.1181 26.1342C54.3194 25.9694 54.5771 25.8877 54.89 25.8877C55.1029 25.8877 55.2926 25.9318 55.4606 26.02C55.6286 26.1083 55.7581 26.2315 55.8504 26.3885C55.9427 26.5455 55.9889 26.7219 55.9889 26.9152H55.7158C55.7158 26.6804 55.6414 26.491 55.4914 26.3483C55.3426 26.2056 55.1413 26.1342 54.8887 26.1342C54.6361 26.1342 54.4489 26.1926 54.304 26.3106C54.1591 26.4274 54.086 26.5818 54.086 26.7712C54.086 26.9464 54.1514 27.0891 54.2822 27.1994C54.413 27.3096 54.6207 27.4069 54.908 27.4913C55.1952 27.5756 55.4132 27.6625 55.5606 27.7533C55.7081 27.8442 55.8197 27.9519 55.8953 28.0777C55.9697 28.2035 56.0069 28.3527 56.0069 28.524C56.0069 28.7952 55.9056 29.0118 55.7043 29.1766C55.5029 29.3401 55.2375 29.4218 54.908 29.4218C54.6823 29.4218 54.4758 29.379 54.2873 29.2921C54.0989 29.2051 53.9565 29.0845 53.8591 28.9288C53.7616 28.7731 53.7129 28.5941 53.7129 28.393H53.9835C53.9835 28.6356 54.0681 28.8263 54.2361 28.9664C54.404 29.1065 54.6284 29.1766 54.908 29.1766C55.1567 29.1766 55.3568 29.1169 55.5081 28.9989C55.6594 28.8808 55.735 28.7238 55.735 28.5292L55.7376 28.5279Z" fill="#E8EAF6"/>
<path d="M61.4225 29.373H61.1523V25.9336H61.4225V29.373Z" fill="#E8EAF6"/>
<path d="M69.1036 28.9638C69.01 29.1065 68.8625 29.2194 68.6625 29.2999C68.4625 29.3803 68.2381 29.4205 67.9906 29.4205C67.7431 29.4205 67.5174 29.3556 67.3225 29.2272C67.1276 29.0975 66.9763 28.9158 66.8699 28.6797C66.7634 28.4436 66.7083 28.1724 66.707 27.8675V27.4329C66.707 26.9555 66.8186 26.5792 67.043 26.3029C67.2674 26.0265 67.5687 25.8877 67.947 25.8877C68.2765 25.8877 68.542 25.9772 68.742 26.1576C68.9433 26.3379 69.0625 26.5857 69.0997 26.9023H68.8292C68.7894 26.6493 68.6945 26.4586 68.542 26.3275C68.3906 26.1978 68.1919 26.1316 67.947 26.1316C67.6482 26.1316 67.411 26.2458 67.2366 26.4741C67.0622 26.7025 66.975 27.0255 66.975 27.4407V27.8468C66.975 28.1088 67.0161 28.3398 67.0994 28.5409C67.1828 28.742 67.3007 28.8977 67.4559 29.0079C67.611 29.1182 67.788 29.1727 67.9893 29.1727C68.2227 29.1727 68.4227 29.1338 68.5894 29.0546C68.6984 29.0027 68.7779 28.9418 68.8317 28.873V27.9843H67.9726V27.7391H69.1023V28.9625L69.1036 28.9638Z" fill="#E8EAF6"/>
<path d="M76.7548 29.373H76.4843L74.6442 26.4292V29.373H74.3711V25.9336H74.6442L76.4856 28.88V25.9336H76.7535V29.373H76.7548Z" fill="#E8EAF6"/>
<path d="M89.9766 28.9638C89.883 29.1065 89.7356 29.2194 89.5355 29.2999C89.3355 29.3803 89.1111 29.4205 88.8636 29.4205C88.6161 29.4205 88.3905 29.3556 88.1956 29.2272C88.0007 29.0975 87.8494 28.9158 87.7429 28.6797C87.6365 28.4436 87.5814 28.1724 87.5801 27.8675V27.4329C87.5801 26.9555 87.6916 26.5792 87.916 26.3029C88.1404 26.0265 88.4418 25.8877 88.82 25.8877C89.1496 25.8877 89.415 25.9772 89.615 26.1576C89.8164 26.3379 89.9356 26.5857 89.9728 26.9023H89.7022C89.6625 26.6493 89.5676 26.4586 89.415 26.3275C89.2637 26.1978 89.0649 26.1316 88.82 26.1316C88.5213 26.1316 88.284 26.2458 88.1097 26.4741C87.9353 26.7025 87.8481 27.0255 87.8481 27.4407V27.8468C87.8481 28.1088 87.8891 28.3398 87.9725 28.5409C88.0558 28.742 88.1738 28.8977 88.3289 29.0079C88.4841 29.1182 88.661 29.1727 88.8623 29.1727C89.0957 29.1727 89.2958 29.1338 89.4624 29.0546C89.5714 29.0027 89.6509 28.9418 89.7048 28.873V27.9843H88.8457V27.7391H89.9754V28.9625L89.9766 28.9638Z" fill="#E8EAF6"/>
<path d="M96.441 27.9394H95.5114V29.373H95.2383V25.9336H96.2782C96.6193 25.9336 96.886 26.0231 97.0783 26.1996C97.2707 26.3773 97.3668 26.6264 97.3668 26.9456C97.3668 27.1661 97.3066 27.3607 97.1873 27.5281C97.0668 27.6968 96.9065 27.8122 96.7039 27.8771L97.504 29.3419V29.373H97.2155L96.4423 27.9394H96.441ZM95.5101 27.6942H96.3385C96.5654 27.6942 96.7475 27.6254 96.886 27.4853C97.0232 27.3465 97.0924 27.1661 97.0924 26.9456C97.0924 26.7029 97.0206 26.5135 96.877 26.3799C96.7334 26.2463 96.5321 26.1788 96.2731 26.1788H95.5101V27.6929V27.6942Z" fill="#E8EAF6"/>
<path d="M104.967 27.8416C104.967 28.1581 104.915 28.4358 104.814 28.6758C104.713 28.9158 104.567 29.1 104.378 29.2285C104.19 29.3582 103.97 29.4218 103.723 29.4218C103.35 29.4218 103.047 29.2778 102.818 28.9911C102.588 28.703 102.473 28.3164 102.473 27.8273V27.4731C102.473 27.1591 102.524 26.8815 102.628 26.6402C102.73 26.3989 102.878 26.212 103.066 26.0823C103.255 25.9526 103.473 25.8877 103.719 25.8877C103.965 25.8877 104.182 25.9513 104.37 26.0784C104.559 26.2056 104.704 26.3859 104.806 26.6194C104.909 26.853 104.963 27.1228 104.967 27.4303V27.8416ZM104.696 27.4692C104.696 27.0554 104.609 26.731 104.435 26.4962C104.26 26.2613 104.022 26.1446 103.718 26.1446C103.414 26.1446 103.183 26.2626 103.007 26.4975C102.83 26.7323 102.742 27.0618 102.742 27.4835V27.8429C102.742 28.2503 102.83 28.5746 103.006 28.812C103.182 29.0508 103.42 29.1701 103.723 29.1701C104.025 29.1701 104.268 29.052 104.44 28.8172C104.611 28.5824 104.697 28.2541 104.697 27.8338V27.4705L104.696 27.4692Z" fill="#E8EAF6"/>
<path d="M112.355 25.9336V28.2819C112.353 28.5128 112.306 28.7152 112.212 28.8865C112.119 29.0577 111.986 29.1901 111.816 29.2822C111.645 29.3743 111.449 29.421 111.227 29.421C110.89 29.421 110.621 29.3224 110.417 29.1239C110.214 28.9267 110.109 28.6529 110.102 28.3026V25.9336H110.37V28.2611C110.37 28.5504 110.446 28.7762 110.6 28.9358C110.754 29.0954 110.963 29.1758 111.227 29.1758C111.492 29.1758 111.699 29.0954 111.853 28.9345C112.006 28.7736 112.083 28.5504 112.083 28.2637V25.9349H112.356L112.355 25.9336Z" fill="#E8EAF6"/>
<path d="M117.878 27.9718V29.373H117.607V25.9336H118.697C119.029 25.9336 119.292 26.0244 119.486 26.2073C119.678 26.3903 119.774 26.6407 119.774 26.9611C119.774 27.2816 119.682 27.5333 119.496 27.7084C119.31 27.8836 119.042 27.9718 118.691 27.9718H117.878ZM117.878 27.7266H118.697C118.96 27.7266 119.16 27.6591 119.297 27.5255C119.435 27.3919 119.504 27.205 119.504 26.965C119.504 26.725 119.436 26.5369 119.299 26.3955C119.162 26.2541 118.967 26.1827 118.715 26.1788H117.878V27.7266Z" fill="#E8EAF6"/>
</svg>
