<svg xmlns="http://www.w3.org/2000/svg" width="32" height="32" viewBox="0 0 32 32" fill="none">
  <path d="M23.9999 24.6666C23.4695 24.6666 22.9608 24.4559 22.5857 24.0808C22.2106 23.7057 21.9999 23.197 21.9999 22.6666C21.9999 22.1362 22.2106 21.6274 22.5857 21.2524C22.9608 20.8773 23.4695 20.6666 23.9999 20.6666C24.5304 20.6666 25.0391 20.8773 25.4141 21.2524C25.7892 21.6274 25.9999 22.1362 25.9999 22.6666C25.9999 23.197 25.7892 23.7057 25.4141 24.0808C25.0391 24.4559 24.5304 24.6666 23.9999 24.6666ZM25.9999 12.6666L28.6133 15.9999H22.6666V12.6666M7.99992 24.6666C7.46949 24.6666 6.96078 24.4559 6.5857 24.0808C6.21063 23.7057 5.99992 23.197 5.99992 22.6666C5.99992 22.1362 6.21063 21.6274 6.5857 21.2524C6.96078 20.8773 7.46949 20.6666 7.99992 20.6666C8.53035 20.6666 9.03906 20.8773 9.41413 21.2524C9.78921 21.6274 9.99992 22.1362 9.99992 22.6666C9.99992 23.197 9.78921 23.7057 9.41413 24.0808C9.03906 24.4559 8.53035 24.6666 7.99992 24.6666ZM26.6666 10.6666H22.6666V5.33325H3.99992C2.51992 5.33325 1.33325 6.51992 1.33325 7.99992V22.6666H3.99992C3.99992 23.7274 4.42135 24.7449 5.17149 25.495C5.92164 26.2452 6.93905 26.6666 7.99992 26.6666C9.06078 26.6666 10.0782 26.2452 10.8283 25.495C11.5785 24.7449 11.9999 23.7274 11.9999 22.6666H19.9999C19.9999 23.7274 20.4213 24.7449 21.1715 25.495C21.9216 26.2452 22.9391 26.6666 23.9999 26.6666C25.0608 26.6666 26.0782 26.2452 26.8283 25.495C27.5785 24.7449 27.9999 23.7274 27.9999 22.6666H30.6666V15.9999L26.6666 10.6666Z" fill="#F45D23"/>
</svg>