<svg width="19" height="25" viewBox="0 0 19 25" fill="none" xmlns="http://www.w3.org/2000/svg">
<path d="M17.8125 17.8125C18.0938 18.1406 18.1406 18.5625 17.9531 18.9375C17.8125 19.3125 17.3906 19.5469 16.9688 19.5469H10.5938V20.7188L12 22.9688C12.2344 23.4844 11.8594 24.0938 11.2969 24.0938H6.84375C6.28125 24.0938 5.90625 23.4844 6.14062 22.9688L7.59375 20.7188V19.5469H1.17188C0.75 19.5469 0.328125 19.3125 0.1875 18.9375C0 18.5625 0.046875 18.1406 0.328125 17.8125L4.07812 13.5469H2.625C2.20312 13.5469 1.82812 13.3125 1.6875 12.9375C1.5 12.5625 1.54688 12.1406 1.82812 11.8125L5.48438 7.54688H4.125C3.70312 7.54688 3.32812 7.3125 3.14062 6.9375C3 6.5625 3.04688 6.09375 3.375 5.8125L8.53125 0.28125C8.8125 0 9.32812 0 9.60938 0.28125L14.7656 5.8125C15.0938 6.09375 15.1406 6.5625 15 6.9375C14.8125 7.3125 14.4375 7.54688 14.0156 7.54688H12.6562L16.3125 11.8125C16.5938 12.1406 16.6406 12.5625 16.4531 12.9375C16.3125 13.3125 15.9375 13.5469 15.5156 13.5469H14.0625L17.8125 17.8125Z" fill="#0D34E9"/>
</svg>
