<svg width="21" height="24" viewBox="0 0 21 24" fill="none" xmlns="http://www.w3.org/2000/svg">
<path d="M1.5 21.75V6H19.5V21.75C19.5 23.0156 18.4688 24 17.25 24H3.75C2.48438 24 1.5 23.0156 1.5 21.75ZM14.25 9.75V20.25C14.25 20.6719 14.5781 21 15 21C15.375 21 15.75 20.6719 15.75 20.25V9.75C15.75 9.375 15.375 9 15 9C14.5781 9 14.25 9.375 14.25 9.75ZM9.75 9.75V20.25C9.75 20.6719 10.0781 21 10.5 21C10.875 21 11.25 20.6719 11.25 20.25V9.75C11.25 9.375 10.875 9 10.5 9C10.0781 9 9.75 9.375 9.75 9.75ZM5.25 9.75V20.25C5.25 20.6719 5.57812 21 6 21C6.375 21 6.75 20.6719 6.75 20.25V9.75C6.75 9.375 6.375 9 6 9C5.57812 9 5.25 9.375 5.25 9.75ZM20.25 1.5C20.625 1.5 21 1.875 21 2.25V3.75C21 4.17188 20.625 4.5 20.25 4.5H0.75C0.328125 4.5 0 4.17188 0 3.75V2.25C0 1.875 0.328125 1.5 0.75 1.5H6.375L6.79688 0.65625C6.98438 0.28125 7.35938 0 7.78125 0H13.1719C13.5938 0 13.9688 0.28125 14.1562 0.65625L14.625 1.5H20.25Z" fill="#0D34E9"/>
</svg>
