<svg xmlns="http://www.w3.org/2000/svg" width="40" height="40" viewBox="0 0 40 40" fill="none">
  <path d="M20 2.5C24.6413 2.5 29.0925 4.34374 32.3744 7.62563C35.6563 10.9075 37.5 15.3587 37.5 20C37.5 24.6413 35.6563 29.0925 32.3744 32.3744C29.0925 35.6563 24.6413 37.5 20 37.5C15.3587 37.5 10.9075 35.6563 7.62563 32.3744C4.34374 29.0925 2.5 24.6413 2.5 20C2.5 15.3587 4.34374 10.9075 7.62563 7.62563C10.9075 4.34374 15.3587 2.5 20 2.5ZM11.25 20C11.25 20.3978 11.408 20.7794 11.6893 21.0607C11.9706 21.342 12.3522 21.5 12.75 21.5H27.25C27.6478 21.5 28.0294 21.342 28.3107 21.0607C28.592 20.7794 28.75 20.3978 28.75 20C28.75 19.6022 28.592 19.2206 28.3107 18.9393C28.0294 18.658 27.6478 18.5 27.25 18.5H12.75C12.553 18.5 12.358 18.5388 12.176 18.6142C11.994 18.6896 11.8286 18.8001 11.6893 18.9393C11.5501 19.0786 11.4396 19.244 11.3642 19.426C11.2888 19.608 11.25 19.803 11.25 20Z" fill="#0D34E9"/>
</svg>