<svg xmlns="http://www.w3.org/2000/svg" width="35" height="35" viewBox="0 0 35 35" fill="none">
  <path d="M17.5 0C22.1413 0 26.5925 1.84374 29.8744 5.12563C33.1563 8.40752 35 12.8587 35 17.5C35 22.1413 33.1563 26.5925 29.8744 29.8744C26.5925 33.1563 22.1413 35 17.5 35C12.8587 35 8.40752 33.1563 5.12563 29.8744C1.84374 26.5925 0 22.1413 0 17.5C0 12.8587 1.84374 8.40752 5.12563 5.12563C8.40752 1.84374 12.8587 0 17.5 0ZM8.75 17.5C8.75 17.8978 8.90804 18.2794 9.18934 18.5607C9.47064 18.842 9.85218 19 10.25 19H24.75C25.1478 19 25.5294 18.842 25.8107 18.5607C26.092 18.2794 26.25 17.8978 26.25 17.5C26.25 17.1022 26.092 16.7206 25.8107 16.4393C25.5294 16.158 25.1478 16 24.75 16H10.25C10.053 16 9.85796 16.0388 9.67597 16.1142C9.49399 16.1896 9.32863 16.3001 9.18934 16.4393C9.05005 16.5786 8.93956 16.744 8.86418 16.926C8.7888 17.108 8.75 17.303 8.75 17.5Z" fill="white"/>
</svg>