<svg xmlns="http://www.w3.org/2000/svg" width="60" height="60" viewBox="0 0 60 60" fill="none">
  <path d="M30 55C16.1925 55 5 43.8075 5 30C5 16.1925 16.1925 5 30 5C43.8075 5 55 16.1925 55 30C55 43.8075 43.8075 55 30 55ZM27.5 31.98V40H32.5V31.98C33.816 31.4056 34.8941 30.3957 35.553 29.1199C36.212 27.8442 36.4115 26.3804 36.1182 24.9748C35.8248 23.5693 35.0564 22.3075 33.9422 21.4019C32.828 20.4962 31.4359 20.0018 30 20.0018C28.5641 20.0018 27.172 20.4962 26.0578 21.4019C24.9436 22.3075 24.1752 23.5693 23.8818 24.9748C23.5885 26.3804 23.788 27.8442 24.447 29.1199C25.1059 30.3957 26.184 31.4056 27.5 31.98Z" fill="white"/>
</svg>