<svg xmlns="http://www.w3.org/2000/svg" width="175" height="42" viewBox="0 0 175 42" fill="none">
  <path d="M95.7625 37.3279V34.0593C95.0198 35.3834 93.9738 36.3598 92.6275 36.9885C91.2811 37.6172 89.5565 37.9315 87.459 37.9315C83.5229 37.9315 80.235 36.5879 77.5951 33.9008C74.958 31.2136 73.6367 27.8784 73.6367 23.8922C73.6367 22.0201 73.9677 20.2453 74.6298 18.568C75.2918 16.8906 76.2348 15.4135 77.4616 14.1395C78.7857 12.7347 80.2516 11.6999 81.8678 11.0295C83.4812 10.3591 85.2977 10.0253 87.3144 10.0253C89.3312 10.0253 90.9167 10.348 92.3131 10.9934C93.7096 11.6387 94.8334 12.6151 95.6901 13.9225V10.7041H101.74V37.3306H95.7625V37.3279ZM81.1529 23.8171C81.1529 25.7615 81.801 27.3888 83.0945 28.6962C84.388 30.0036 85.9653 30.6573 87.8262 30.6573C89.5203 30.6573 91.0085 30.0008 92.2964 28.6851C93.5844 27.3693 94.227 25.831 94.227 24.0674C94.227 22.1926 93.5788 20.5819 92.2853 19.23C90.9918 17.8809 89.4758 17.2049 87.7428 17.2049C86.0098 17.2049 84.3714 17.8447 83.0834 19.1243C81.7955 20.4039 81.1529 21.9672 81.1529 23.8143V23.8171Z" fill="#E8EAF6"/>
  <path d="M106.479 37.3223V0H113.992V37.3223H106.479Z" fill="#E8EAF6"/>
  <path d="M131.09 37.3306V0.00836945H138.784V7.34097H143.863V14.1923H138.784V37.3279H131.09V37.3306Z" fill="#E8EAF6"/>
  <path d="M118.785 37.3223V10.7013H126.299V37.3223H118.785Z" fill="#E8EAF6"/>
  <path d="M122.542 7.63584C124.648 7.63584 126.356 5.92838 126.356 3.82211C126.356 1.71585 124.648 0.00837708 122.542 0.00837708C120.436 0.00837708 118.729 1.71585 118.729 3.82211C118.729 5.92838 120.436 7.63584 122.542 7.63584Z" fill="#E8EAF6"/>
  <path d="M52.7849 10.704H45.2715V15.1798H52.7849V10.704Z" fill="#E8EAF6"/>
  <path d="M61.3874 10.7013V26.1426C61.3874 28.5181 59.4596 30.4459 57.084 30.4459C54.7085 30.4459 52.7807 28.5181 52.7807 26.1426V21.7697L45.4648 29.1218C46.6026 36.6074 52.4191 37.8063 54.714 37.9843C55.0172 37.9982 55.3232 38.0094 55.6459 38.0094C59.9548 38.0094 60.8449 36.4154 61.3874 35.9342V37.3223H68.9008V10.7013H61.3874Z" fill="#E8EAF6"/>
  <path d="M22.1174 29.7198H17.9198C12.1171 29.3527 7.52174 24.5319 7.52174 18.6347C7.52174 12.7375 12.4954 7.52454 18.6319 7.52454C24.7684 7.52454 29.7421 12.4982 29.7421 18.6347C29.7421 19.689 29.5918 20.7071 29.3192 21.6723L33.4974 25.8699L36.8688 22.4818C37.1303 21.2412 37.2694 19.9532 37.2694 18.6347C37.2694 8.34237 28.927 0 18.6347 0C8.34235 0 0 8.34237 0 18.6347C0 25.8783 4.13641 32.1538 10.1755 35.236C12.7152 36.5323 15.5887 37.2694 18.6347 37.2694H29.6586L22.1202 29.7198H22.1174Z" fill="#E8EAF6"/>
  <path d="M45.2702 17.9059L33.4952 29.7365L28.1515 24.3678C27.2224 25.9089 25.9289 27.2052 24.3906 28.1398L33.5091 37.2722L52.7836 17.9059H45.2702Z" fill="#F45D23"/>
  <path d="M153.062 41.8064H161.018L174.999 7.53564H167.118L161.074 23.2774L155.58 7.53564H147.607L156.834 32.3235L153.062 41.8064Z" fill="#E8EAF6"/>
</svg>