<svg xmlns="http://www.w3.org/2000/svg" width="120" height="26" viewBox="0 0 120 26" fill="none">
  <path d="M82.8481 20.3772V18.8419C82.4977 19.4628 82.0081 19.9248 81.3793 20.2184C80.7457 20.512 79.9393 20.6612 78.9553 20.6612C77.1073 20.6612 75.5665 20.0307 74.3281 18.7649C73.0897 17.5039 72.4705 15.9349 72.4705 14.0578C72.4705 13.177 72.6241 12.3444 72.9361 11.5551C73.2481 10.7658 73.6897 10.0727 74.2657 9.47106C74.8849 8.81169 75.576 8.32559 76.3296 8.00794C77.088 7.69509 77.9377 7.53628 78.8833 7.53628C79.8289 7.53628 80.5729 7.69027 81.2257 7.99348C81.8785 8.2967 82.4065 8.75395 82.8097 9.37001V7.85874H85.6465V20.3772H82.8433H82.8481ZM75.9937 14.0241C75.9937 14.9386 76.2961 15.7038 76.9057 16.3199C77.5105 16.936 78.2545 17.244 79.1233 17.244C79.9153 17.244 80.6161 16.936 81.2209 16.3151C81.8257 15.699 82.1281 14.9723 82.1281 14.1444C82.1281 13.2637 81.8257 12.5032 81.2161 11.8679C80.6113 11.2326 79.9009 10.9149 79.0849 10.9149C78.2689 10.9149 77.5057 11.2182 76.9009 11.8198C76.2961 12.4214 75.9937 13.1578 75.9937 14.0241Z" fill="white"/>
  <path d="M87.8689 20.3772V2.8292H91.3921V20.3772H87.8689Z" fill="white"/>
  <path d="M99.4128 20.382V2.83401H103.022V6.28007H105.403V9.49993H103.022V20.3772H99.4128V20.382Z" fill="white"/>
  <path d="M56.9472 11.6032C56.9472 6.57848 52.8864 2.50674 47.8752 2.50674C42.864 2.50674 38.8032 6.57848 38.8032 11.6032C38.8032 16.6279 42.864 20.6997 47.8752 20.6997C49.7424 20.6997 51.48 20.1317 52.9248 19.1643L54.4561 20.6997L56.9472 18.2018L55.4161 16.6664C56.3857 15.2177 56.9472 13.4802 56.9472 11.6032ZM47.8752 17.167C44.8128 17.167 42.3264 14.6739 42.3264 11.6032C42.3264 8.53254 44.8128 6.03943 47.8752 6.03943C50.9376 6.03943 53.424 8.53254 53.424 11.6032C53.424 12.4936 53.2128 13.3359 52.8432 14.0867L50.3664 11.6032L47.8752 14.1011L50.352 16.5846C49.608 16.96 48.768 17.167 47.8752 17.167Z" fill="white"/>
  <path d="M66.7295 7.85874V15.1167C66.7295 16.2333 65.8271 17.1381 64.7135 17.1381C63.5999 17.1381 62.6975 16.2333 62.6975 15.1167V7.85874H59.1743V15.1022C59.1743 16.9071 59.1743 20.6997 64.0415 20.6997C66.0623 20.6997 66.4799 19.9489 66.7343 19.7227V20.3772H70.2575V7.85874H66.7343H66.7295Z" fill="white"/>
  <path d="M116.304 6.37152L113.472 13.7738L110.894 6.37152H107.155L111.485 18.0285L109.315 23.496H113.035L120 6.37152H116.304Z" fill="white"/>
  <path d="M93.6433 20.3772V7.86355H97.1665V20.3772H93.6433Z" fill="white"/>
  <path d="M95.4049 6.41966C96.3937 6.41966 97.1953 5.61589 97.1953 4.62441C97.1953 3.63294 96.3937 2.8292 95.4049 2.8292C94.4161 2.8292 93.6145 3.63294 93.6145 4.62441C93.6145 5.61589 94.4161 6.41966 95.4049 6.41966Z" fill="white"/>
  <path d="M22.9056 15.2715L25.1904 12.9805V12.6292C25.1904 5.66483 19.5408 0 12.5952 0C5.6496 0 0 5.66483 0 12.6292C0 19.5935 5.6496 25.2584 12.5952 25.2584H19.488L15.096 20.8545H12.5952C8.0736 20.8545 4.39198 17.163 4.39198 12.6292C4.39198 8.09537 8.0736 4.40386 12.5952 4.40386C17.1168 4.40386 20.7984 8.09537 20.7984 12.6292V13.1634L22.9056 15.2763V15.2715Z" fill="white"/>
  <path d="M29.0255 12.9805L22.9055 19.0304L20.0207 16.1378C19.3823 17.4999 18.3791 18.655 17.1455 19.4828L22.9103 25.2632L35.2847 12.9854H29.0303L29.0255 12.9805Z" fill="white"/>
</svg>