<svg xmlns="http://www.w3.org/2000/svg" width="120" height="29" viewBox="0 0 120 29" fill="none">
  <path d="M65.6661 25.5962V23.355C65.1568 24.2629 64.4396 24.9324 63.5164 25.3635C62.5932 25.7946 61.4105 26.0102 59.9723 26.0102C57.2733 26.0102 55.0186 25.0889 53.2085 23.2462C51.4002 21.4036 50.4941 19.1166 50.4941 16.3832C50.4941 15.0995 50.7211 13.8825 51.1751 12.7323C51.6291 11.5821 52.2757 10.5693 53.1169 9.69565C54.0249 8.73238 55.0301 8.0228 56.1383 7.5631C57.2447 7.1034 58.4902 6.87451 59.8731 6.87451C61.256 6.87451 62.3433 7.09578 63.3008 7.53831C64.2584 7.98084 65.029 8.65036 65.6165 9.54687V7.33993H69.7652V25.5981H65.6661V25.5962ZM55.6481 16.3317C55.6481 17.665 56.0925 18.7809 56.9795 19.6774C57.8665 20.5739 58.948 21.0222 60.2241 21.0222C61.3857 21.0222 62.4062 20.572 63.2894 19.6698C64.1725 18.7675 64.6132 17.7127 64.6132 16.5034C64.6132 15.2177 64.1687 14.1133 63.2818 13.1863C62.3948 12.2612 61.3552 11.7977 60.1669 11.7977C58.9785 11.7977 57.855 12.2364 56.9719 13.1138C56.0887 13.9912 55.6481 15.0632 55.6481 16.3298V16.3317Z" fill="white"/>
  <path d="M73.0142 25.5924V0H78.1662V25.5924H73.0142Z" fill="white"/>
  <path d="M89.8911 25.5983V0.00585938H95.1672V5.03393H98.6502V9.73201H95.1672V25.5964H89.8911V25.5983Z" fill="white"/>
  <path d="M81.4526 25.5925V7.33813H86.6047V25.5925H81.4526Z" fill="white"/>
  <path d="M84.0292 5.23612C85.4735 5.23612 86.6443 4.06529 86.6443 2.62099C86.6443 1.1767 85.4735 0.00585938 84.0292 0.00585938C82.5849 0.00585938 81.4141 1.1767 81.4141 2.62099C81.4141 4.06529 82.5849 5.23612 84.0292 5.23612Z" fill="white"/>
  <path d="M36.194 7.33984H31.042V10.4089H36.194V7.33984Z" fill="white"/>
  <path d="M42.0936 7.33789V17.9262C42.0936 19.5552 40.7717 20.877 39.1427 20.877C37.5138 20.877 36.1919 19.5552 36.1919 17.9262V14.9277L31.1753 19.9691C31.9554 25.1021 35.9439 25.9242 37.5176 26.0463C37.7255 26.0558 37.9353 26.0634 38.1566 26.0634C41.1113 26.0634 41.7216 24.9705 42.0936 24.6405V25.5923H47.2457V7.33789H42.0936Z" fill="white"/>
  <path d="M15.1662 20.3793H12.2879C8.3089 20.1275 5.15777 16.8219 5.15777 12.7781C5.15777 8.73427 8.56831 5.15968 12.7762 5.15968C16.984 5.15968 20.3946 8.57022 20.3946 12.7781C20.3946 13.501 20.2916 14.1991 20.1046 14.861L22.9696 17.7394L25.2815 15.4161C25.4608 14.5654 25.5562 13.6822 25.5562 12.7781C25.5562 5.72048 19.8357 0 12.7781 0C5.72047 0 0 5.72048 0 12.7781C0 17.7451 2.8364 22.0483 6.9775 24.1618C8.71901 25.0507 10.6894 25.5562 12.7781 25.5562H20.3373L15.1681 20.3793H15.1662Z" fill="white"/>
  <path d="M31.042 12.2783L22.9677 20.3908L19.3035 16.7094C18.6664 17.7661 17.7794 18.655 16.7246 19.2959L22.9773 25.5581L36.1941 12.2783H31.042Z" fill="white"/>
  <path d="M104.958 28.6672H110.413L120 5.16724H114.596L110.451 15.9616L106.684 5.16724H101.217L107.544 22.1646L104.958 28.6672Z" fill="white"/>
</svg>