<svg xmlns="http://www.w3.org/2000/svg" width="180" height="55" viewBox="0 0 180 55" fill="none">
  <path d="M98.4991 38.3951V35.0332C97.7352 36.3951 96.6593 37.3994 95.2745 38.046C93.8897 38.6926 92.1158 39.016 89.9584 39.016C85.9099 39.016 82.528 37.634 79.8127 34.8701C77.1003 32.1062 75.7412 28.6756 75.7412 24.5755C75.7412 22.65 76.0817 20.8245 76.7627 19.0992C77.4436 17.3739 78.4136 15.8546 79.6753 14.5442C81.0373 13.0993 82.5451 12.0349 84.2075 11.3454C85.867 10.6558 87.7353 10.3125 89.8097 10.3125C91.884 10.3125 93.5149 10.6444 94.9512 11.3082C96.3875 11.972 97.5435 12.9763 98.4247 14.321V11.0106H104.648V38.3979H98.4991V38.3951ZM83.4721 24.4983C83.4721 26.4982 84.1388 28.172 85.4692 29.5168C86.7997 30.8616 88.422 31.5339 90.3361 31.5339C92.0786 31.5339 93.6093 30.8587 94.9341 29.5054C96.2588 28.152 96.9197 26.5698 96.9197 24.7558C96.9197 22.8273 96.2531 21.1707 94.9226 19.7802C93.5922 18.3925 92.0328 17.6972 90.2503 17.6972C88.4678 17.6972 86.7825 18.3553 85.4578 19.6714C84.1331 20.9876 83.4721 22.5956 83.4721 24.4954V24.4983Z" fill="#0D34E9"/>
  <path d="M109.521 38.3886V0H117.249V38.3886H109.521Z" fill="#0D34E9"/>
  <path d="M134.836 38.3964V0.0078125H142.75V7.54991H147.975V14.597H142.75V38.3935H134.836V38.3964Z" fill="#0D34E9"/>
  <path d="M122.179 38.3894V11.0078H129.907V38.3894H122.179Z" fill="#0D34E9"/>
  <path d="M126.044 7.8532C128.21 7.8532 129.966 6.09695 129.966 3.93051C129.966 1.76407 128.21 0.0078125 126.044 0.0078125C123.877 0.0078125 122.121 1.76407 122.121 3.93051C122.121 6.09695 123.877 7.8532 126.044 7.8532Z" fill="#0D34E9"/>
  <path d="M7.72461 54.2813V47.9609H10.0937C10.5801 47.9609 10.9864 48.0525 11.3183 48.2328C11.6473 48.413 11.8991 48.6619 12.0679 48.9767C12.2367 49.2914 12.3225 49.6519 12.3225 50.0525C12.3225 50.453 12.2367 50.8164 12.0679 51.1311C11.8962 51.4459 11.6444 51.6919 11.3125 51.8722C10.9806 52.0524 10.5686 52.1411 10.0822 52.1411H8.51144V51.1998H9.92773C10.211 51.1998 10.4456 51.1512 10.6259 51.051C10.8061 50.9509 10.9406 50.8164 11.0293 50.6447C11.1151 50.4731 11.1609 50.2728 11.1609 50.0496C11.1609 49.8264 11.118 49.629 11.0293 49.4574C10.9406 49.2857 10.8061 49.1541 10.6259 49.0568C10.4427 48.9624 10.211 48.9137 9.92486 48.9137H8.87479V54.2756H7.73032L7.72461 54.2813Z" fill="#0D34E9"/>
  <path d="M21.0466 51.1196C21.0466 51.8006 20.9207 52.3842 20.6661 52.8678C20.4114 53.3513 20.0652 53.7233 19.6303 53.9808C19.1954 54.2383 18.6976 54.367 18.1454 54.367C17.5932 54.367 17.0982 54.2383 16.6604 53.9808C16.2227 53.7233 15.8765 53.3513 15.6247 52.8678C15.37 52.3842 15.2441 51.8005 15.2441 51.1224C15.2441 50.4443 15.37 49.8578 15.6247 49.3743C15.8793 48.8907 16.2255 48.5188 16.6604 48.2613C17.0953 48.0038 17.5932 47.875 18.1454 47.875C18.6976 47.875 19.1926 48.0038 19.6303 48.2613C20.0681 48.5188 20.4143 48.8879 20.6661 49.3743C20.9207 49.8578 21.0466 50.4415 21.0466 51.1224V51.1196ZM19.8964 51.1196C19.8964 50.6418 19.8221 50.2355 19.6733 49.9064C19.5245 49.5774 19.3185 49.3256 19.0552 49.1568C18.792 48.988 18.4887 48.9022 18.1454 48.9022C17.802 48.9022 17.4988 48.988 17.2355 49.1568C16.9723 49.3256 16.7663 49.5774 16.6175 49.9064C16.4687 50.2355 16.3943 50.6418 16.3943 51.1196C16.3943 51.5974 16.4687 52.0037 16.6175 52.3327C16.7663 52.6618 16.9723 52.9136 17.2355 53.0824C17.4988 53.2512 17.802 53.337 18.1454 53.337C18.4887 53.337 18.792 53.2512 19.0552 53.0824C19.3185 52.9136 19.5245 52.6618 19.6733 52.3327C19.8221 52.0037 19.8964 51.5974 19.8964 51.1196Z" fill="#0D34E9"/>
  <path d="M24.2197 54.2813V47.9609H26.5888C27.0752 47.9609 27.4815 48.0468 27.8134 48.2127C28.1424 48.3815 28.3942 48.6161 28.563 48.9223C28.7318 49.2256 28.8177 49.5804 28.8177 49.9809C28.8177 50.3815 28.7318 50.7363 28.5602 51.0339C28.3885 51.3314 28.1367 51.5603 27.8019 51.7234C27.4672 51.8865 27.058 51.9666 26.5745 51.9666H24.8864V51.0167H26.42C26.7032 51.0167 26.9379 50.9766 27.1181 50.8965C27.2984 50.8164 27.4329 50.702 27.5215 50.5475C27.6074 50.393 27.6532 50.207 27.6532 49.9809C27.6532 49.7549 27.6102 49.5661 27.5215 49.4058C27.4329 49.2456 27.2984 49.1255 27.1181 49.0425C26.9379 48.9595 26.7033 48.9166 26.4171 48.9166H25.3671V54.2784H24.2226L24.2197 54.2813ZM27.4844 51.4173L29.0494 54.2813H27.7733L26.2369 51.4173H27.4872H27.4844Z" fill="#0D34E9"/>
  <path d="M31.6786 48.9194V47.9609H36.7201V48.9194H34.7659V54.2784H33.63V48.9194H31.6758H31.6786Z" fill="#0D34E9"/>
  <path d="M39.8213 54.2813H38.5996L40.8228 47.9609H42.2362L44.465 54.2813H43.2433L41.5552 49.2571H41.5066L39.8213 54.2813ZM39.8614 51.8035H43.1947V52.722H39.8614V51.8035Z" fill="#0D34E9"/>
  <path d="M47.3838 54.2813V47.9609H49.8015C50.2593 47.9609 50.637 48.0325 50.9431 48.1755C51.2464 48.3186 51.4724 48.5131 51.6241 48.7592C51.7757 49.0053 51.8501 49.2857 51.8501 49.5975C51.8501 49.8551 51.8015 50.0754 51.7013 50.2556C51.6012 50.4359 51.4696 50.5847 51.3036 50.6991C51.1377 50.8135 50.9517 50.8937 50.7457 50.9423V51.0052C50.9689 51.0167 51.1863 51.0854 51.3923 51.2112C51.5983 51.3343 51.7671 51.5117 51.8987 51.7377C52.0304 51.9637 52.0962 52.2384 52.0962 52.5589C52.0962 52.8793 52.0161 53.1798 51.8587 53.4401C51.7013 53.7005 51.461 53.9065 51.1434 54.0553C50.8258 54.2069 50.4224 54.2813 49.9417 54.2813H47.3838ZM48.5283 50.6476H49.6613C49.8587 50.6476 50.0361 50.6104 50.1963 50.5389C50.3537 50.4645 50.4796 50.3615 50.5712 50.227C50.6627 50.0925 50.7085 49.9323 50.7085 49.7463C50.7085 49.5003 50.6227 49.3 50.451 49.1426C50.2793 48.9852 50.0247 48.9051 49.687 48.9051H48.5311V50.6476H48.5283ZM48.5283 53.3228H49.7586C50.1734 53.3228 50.4739 53.2427 50.657 53.0825C50.8401 52.9222 50.9345 52.7191 50.9345 52.4673C50.9345 52.2813 50.8887 52.1097 50.7943 51.9609C50.6999 51.8121 50.5711 51.6919 50.3995 51.6032C50.2278 51.5145 50.0247 51.4716 49.79 51.4716H48.5283V53.3228Z" fill="#0D34E9"/>
  <path d="M55.1777 54.2813V47.9609H56.3222V53.32H59.1062V54.2784H55.1777V54.2813Z" fill="#0D34E9"/>
  <path d="M62.1826 54.2813V47.9609H66.2913V48.9194H63.3271V50.6362H66.0796V51.5947H63.3271V53.32H66.317V54.2784H62.1826V54.2813Z" fill="#0D34E9"/>
  <path d="M73.79 54.2813V47.9609H76.1591C76.6455 47.9609 77.0518 48.0468 77.3837 48.2127C77.7127 48.3815 77.9645 48.6161 78.1333 48.9223C78.3021 49.2256 78.388 49.5804 78.388 49.9809C78.388 50.3815 78.3021 50.7363 78.1305 51.0339C77.9588 51.3314 77.707 51.5603 77.3723 51.7234C77.0404 51.8836 76.6283 51.9666 76.1448 51.9666H74.4567V51.0167H75.9903C76.2736 51.0167 76.5053 50.9766 76.6884 50.8965C76.8715 50.8164 77.0032 50.702 77.0919 50.5475C77.1777 50.393 77.2235 50.207 77.2235 49.9809C77.2235 49.7549 77.1777 49.5661 77.0919 49.4058C77.0032 49.2456 76.8687 49.1255 76.6884 49.0425C76.5082 48.9595 76.2736 48.9166 75.9874 48.9166H74.9374V54.2784H73.7929L73.79 54.2813ZM77.0547 51.4173L78.6197 54.2813H77.3436L75.8072 51.4173H77.0575H77.0547Z" fill="#0D34E9"/>
  <path d="M81.5264 54.2813V47.9609H85.635V48.9194H82.6708V50.6362H85.4233V51.5947H82.6708V53.32H85.6608V54.2784H81.5264V54.2813Z" fill="#0D34E9"/>
  <path d="M94.0837 47.9609V54.2813H93.0651L90.0866 49.9781H90.0351V54.2813H88.8906V47.9609H89.9149L92.8906 52.267H92.9449V47.9609H94.0837Z" fill="#0D34E9"/>
  <path d="M97.1337 48.9194V47.9609H102.175V48.9194H100.221V54.2784H99.0851V48.9194H97.1309H97.1337Z" fill="#0D34E9"/>
  <path d="M105.277 54.2813H104.056L106.279 47.9609H107.692L109.921 54.2813H108.699L107.011 49.2571H106.963L105.277 54.2813ZM105.317 51.8035H108.651V52.722H105.317V51.8035Z" fill="#0D34E9"/>
  <path d="M112.839 54.2813V47.9609H113.983V53.32H116.767V54.2784H112.839V54.2813Z" fill="#0D34E9"/>
  <path d="M127.517 49.6958C127.488 49.4268 127.368 49.2179 127.154 49.0663C126.942 48.9147 126.664 48.8403 126.324 48.8403C126.086 48.8403 125.88 48.8775 125.709 48.949C125.537 49.0205 125.408 49.1178 125.317 49.2408C125.225 49.3639 125.179 49.5041 125.179 49.6643C125.179 49.7959 125.208 49.9104 125.271 50.0076C125.331 50.1049 125.414 50.185 125.52 50.2537C125.626 50.3195 125.74 50.3767 125.869 50.4225C125.998 50.4683 126.126 50.5055 126.255 50.537L126.847 50.6857C127.085 50.7401 127.317 50.8173 127.537 50.9118C127.757 51.0062 127.958 51.1264 128.132 51.2694C128.307 51.4125 128.447 51.587 128.55 51.7902C128.653 51.9933 128.704 52.2336 128.704 52.5055C128.704 52.8745 128.61 53.2007 128.421 53.4811C128.232 53.7615 127.958 53.9818 127.603 54.1392C127.245 54.2966 126.816 54.3767 126.309 54.3767C125.803 54.3767 125.391 54.2994 125.031 54.1478C124.67 53.9961 124.387 53.773 124.186 53.4811C123.983 53.1893 123.875 52.8345 123.857 52.4139H124.985C125.002 52.6342 125.068 52.8173 125.188 52.9632C125.308 53.1092 125.463 53.2179 125.654 53.2894C125.846 53.3609 126.063 53.3981 126.301 53.3981C126.538 53.3981 126.767 53.3609 126.956 53.2866C127.145 53.2122 127.291 53.1063 127.4 52.9718C127.505 52.8374 127.56 52.68 127.563 52.4997C127.563 52.3366 127.511 52.1993 127.417 52.0906C127.322 51.9819 127.191 51.8932 127.019 51.8188C126.847 51.7444 126.653 51.6814 126.424 51.6242L125.706 51.4382C125.185 51.3038 124.773 51.1006 124.473 50.8288C124.172 50.557 124.021 50.1936 124.021 49.7416C124.021 49.3696 124.121 49.0434 124.324 48.763C124.527 48.4826 124.802 48.2652 125.154 48.1107C125.503 47.9562 125.9 47.8789 126.341 47.8789C126.782 47.8789 127.182 47.9562 127.52 48.1107C127.857 48.2652 128.123 48.4798 128.318 48.7544C128.513 49.0291 128.61 49.3438 128.616 49.6986H127.514L127.517 49.6958Z" fill="#0D34E9"/>
  <path d="M131.809 54.2813V47.9609H135.917V48.9194H132.953V50.6362H135.706V51.5947H132.953V53.32H135.943V54.2784H131.809V54.2813Z" fill="#0D34E9"/>
  <path d="M139.174 54.2813V47.9609H141.543C142.029 47.9609 142.436 48.0468 142.767 48.2127C143.097 48.3815 143.348 48.6161 143.517 48.9223C143.686 49.2256 143.772 49.5804 143.772 49.9809C143.772 50.3815 143.686 50.7363 143.514 51.0339C143.343 51.3314 143.091 51.5603 142.756 51.7234C142.424 51.8836 142.012 51.9666 141.529 51.9666H139.84V51.0167H141.374C141.657 51.0167 141.889 50.9766 142.072 50.8965C142.255 50.8164 142.387 50.702 142.476 50.5475C142.561 50.393 142.607 50.207 142.607 49.9809C142.607 49.7549 142.561 49.5661 142.476 49.4058C142.387 49.2456 142.252 49.1255 142.072 49.0425C141.892 48.9595 141.657 48.9166 141.371 48.9166H140.321V54.2784H139.177L139.174 54.2813ZM142.438 51.4173L144.004 54.2813H142.727L141.191 51.4173H142.441H142.438Z" fill="#0D34E9"/>
  <path d="M147.588 47.9609L149.233 52.9337H149.299L150.941 47.9609H152.2L149.972 54.2813H148.558L146.335 47.9609H147.591H147.588Z" fill="#0D34E9"/>
  <path d="M156.264 47.9609V54.2813H155.119V47.9609H156.264Z" fill="#0D34E9"/>
  <path d="M164.998 50.0935H163.845C163.814 49.9046 163.751 49.7358 163.662 49.5899C163.574 49.444 163.465 49.3181 163.333 49.2151C163.202 49.1121 163.053 49.0348 162.884 48.9833C162.718 48.9318 162.535 48.9032 162.343 48.9032C162 48.9032 161.697 48.989 161.431 49.1607C161.164 49.3324 160.958 49.5842 160.807 49.9132C160.658 50.2422 160.581 50.6457 160.581 51.1206C160.581 51.5956 160.655 52.0105 160.807 52.3424C160.958 52.6714 161.164 52.9203 161.431 53.0891C161.697 53.2579 161.997 53.3409 162.338 53.3409C162.526 53.3409 162.704 53.3152 162.87 53.2665C163.036 53.215 163.184 53.1406 163.316 53.0433C163.448 52.9461 163.562 52.823 163.654 52.68C163.745 52.5369 163.808 52.371 163.843 52.185L164.996 52.1907C164.953 52.4911 164.858 52.7715 164.718 53.0376C164.575 53.3009 164.389 53.5326 164.157 53.7329C163.925 53.9332 163.657 54.0905 163.348 54.2021C163.039 54.3137 162.698 54.3709 162.32 54.3709C161.765 54.3709 161.27 54.2422 160.833 53.9847C160.398 53.7272 160.054 53.3552 159.803 52.8717C159.551 52.3853 159.428 51.8045 159.428 51.1263C159.428 50.4482 159.554 49.8617 159.808 49.3782C160.06 48.8946 160.406 48.5227 160.841 48.2652C161.276 48.0077 161.771 47.8789 162.323 47.8789C162.675 47.8789 163.001 47.9275 163.305 48.0277C163.608 48.1278 163.877 48.2709 164.114 48.4626C164.352 48.6543 164.546 48.886 164.698 49.1607C164.853 49.4354 164.953 49.7473 164.998 50.0992V50.0935Z" fill="#0D34E9"/>
  <path d="M168.138 54.2813V47.9609H172.246V48.9194H169.282V50.6362H172.035V51.5947H169.282V53.32H172.272V54.2784H168.138V54.2813Z" fill="#0D34E9"/>
  <path d="M54.2906 11.0117H46.5625V15.6154H54.2906V11.0117Z" fill="#0D34E9"/>
  <path d="M63.1411 11.0078V26.8903C63.1411 29.3337 61.1583 31.3165 58.7148 31.3165C56.2714 31.3165 54.2886 29.3337 54.2886 26.8903V22.3925L46.7637 29.9546C47.9339 37.6541 53.9166 38.8872 56.2771 39.0704C56.589 39.0847 56.9037 39.0961 57.2356 39.0961C61.6676 39.0961 62.5832 37.4566 63.1411 36.9617V38.3894H70.8692V11.0078H63.1411Z" fill="#0D34E9"/>
  <path d="M22.7493 30.5689H18.4318C12.4633 30.1913 7.73664 25.2328 7.73664 19.1671C7.73664 13.1014 12.8524 7.73952 19.1642 7.73952C25.476 7.73952 30.5918 12.8553 30.5918 19.1671C30.5918 20.2515 30.4373 21.2987 30.1569 22.2915L34.4544 26.6091L37.9221 23.1241C38.1911 21.848 38.3342 20.5233 38.3342 19.1671C38.3342 8.58071 29.7535 0 19.1671 0C8.58069 0 0 8.58071 0 19.1671C0 26.6176 4.25459 33.0725 10.4662 36.2427C13.0785 37.576 16.0341 38.3342 19.1671 38.3342H30.506L22.7521 30.5689H22.7493Z" fill="#0D34E9"/>
  <path d="M46.562 18.418L34.4506 30.5866L28.9543 25.0645C27.9986 26.6496 26.6682 27.9829 25.0859 28.9443L34.4649 38.3376L54.2901 18.418H46.562Z" fill="#FF6E06"/>
  <path d="M157.437 42.9999H165.62L180 7.75H171.895L165.677 23.9415L160.026 7.75H151.826L161.317 33.2461L157.437 42.9999Z" fill="#0D34E9"/>
</svg>