<svg xmlns="http://www.w3.org/2000/svg" width="175" height="42" viewBox="0 0 175 42" fill="none">
  <path d="M95.7608 37.3282V34.0597C95.0181 35.3838 93.9722 36.3601 92.6259 36.9888C91.2795 37.6175 89.5549 37.9318 87.4575 37.9318C83.5214 37.9318 80.2334 36.5882 77.5936 33.9011C74.9566 31.214 73.6353 27.8787 73.6353 23.8925C73.6353 22.0204 73.9663 20.2456 74.6283 18.5683C75.2904 16.8909 76.2334 15.4138 77.4601 14.1398C78.7842 12.735 80.2501 11.7002 81.8663 11.0298C83.4797 10.3594 85.2961 10.0256 87.3128 10.0256C89.3296 10.0256 90.9151 10.3483 92.3115 10.9937C93.7079 11.639 94.8317 12.6154 95.6885 13.9228V10.7044H101.739V37.331H95.7608V37.3282ZM81.1514 23.8174C81.1514 25.7618 81.7995 27.3891 83.093 28.6965C84.3865 30.0039 85.9637 30.6576 87.8247 30.6576C89.5187 30.6576 91.0069 30.0011 92.2948 28.6854C93.5828 27.3696 94.2253 25.8313 94.2253 24.0677C94.2253 22.1929 93.5772 20.5822 92.2837 19.2303C90.9902 17.8812 89.4742 17.2052 87.7412 17.2052C86.0082 17.2052 84.3698 17.845 83.0819 19.1246C81.794 20.4042 81.1514 21.9675 81.1514 23.8146V23.8174Z" fill="white"/>
  <path d="M106.477 37.3223V0H113.99V37.3223H106.477Z" fill="white"/>
  <path d="M131.089 37.331V0.00866699H138.783V7.34128H143.862V14.1927H138.783V37.3282H131.089V37.331Z" fill="white"/>
  <path d="M118.784 37.3227V10.7016H126.297V37.3227H118.784Z" fill="white"/>
  <path d="M122.543 7.63615C124.649 7.63615 126.356 5.92868 126.356 3.82241C126.356 1.71615 124.649 0.00867462 122.543 0.00867462C120.436 0.00867462 118.729 1.71615 118.729 3.82241C118.729 5.92868 120.436 7.63615 122.543 7.63615Z" fill="white"/>
  <path d="M52.7839 10.7035H45.2705V15.1793H52.7839V10.7035Z" fill="white"/>
  <path d="M61.3848 10.7017V26.143C61.3848 28.5186 59.4571 30.4463 57.0815 30.4463C54.7059 30.4463 52.7782 28.5186 52.7782 26.143V21.7701L45.4624 29.1222C46.6001 36.6078 52.4166 37.8067 54.7115 37.9847C55.0147 37.9987 55.3207 38.0098 55.6434 38.0098C59.9522 38.0098 60.8424 36.4159 61.3848 35.9346V37.3227H68.8981V10.7017H61.3848Z" fill="white"/>
  <path d="M22.1172 29.7199H17.9196C12.117 29.3527 7.52168 24.532 7.52168 18.6347C7.52168 12.7375 12.4953 7.52455 18.6317 7.52455C24.7681 7.52455 29.7418 12.4983 29.7418 18.6347C29.7418 19.689 29.5916 20.7071 29.319 21.6724L33.4971 25.87L36.8685 22.4818C37.13 21.2412 37.2691 19.9533 37.2691 18.6347C37.2691 8.34238 28.9268 0 18.6345 0C8.34228 0 0 8.34238 0 18.6347C0 25.8783 4.13638 32.1539 10.1754 35.236C12.7151 36.5323 15.5886 37.2694 18.6345 37.2694H29.6584L22.12 29.7199H22.1172Z" fill="white"/>
  <path d="M45.271 17.9059L33.4961 29.7365L28.1525 24.3678C27.2234 25.9089 25.9299 27.2052 24.3916 28.1398L33.51 37.2722L52.7843 17.9059H45.271Z" fill="#F45D23"/>
  <path d="M153.064 41.8064H161.019L175 7.53561H167.12L161.075 23.2774L155.581 7.53561H147.609L156.836 32.3235L153.064 41.8064Z" fill="white"/>
</svg>