<svg xmlns="http://www.w3.org/2000/svg" width="239" height="72" viewBox="0 0 239 72" fill="none">
  <path d="M130.422 50.8363V46.3848C129.411 48.1881 127.986 49.5179 126.153 50.3741C124.319 51.2303 121.97 51.6584 119.114 51.6584C113.753 51.6584 109.275 49.8285 105.68 46.1688C102.088 42.5092 100.289 37.9668 100.289 32.5379C100.289 29.9883 100.739 27.5712 101.641 25.2868C102.543 23.0023 103.827 20.9906 105.498 19.2555C107.301 17.3423 109.298 15.933 111.499 15.02C113.696 14.107 116.17 13.6523 118.917 13.6523C121.663 13.6523 123.823 14.0918 125.724 14.9707C127.626 15.8497 129.157 17.1794 130.324 18.96V14.5767H138.564V50.84H130.422V50.8363ZM110.525 32.4356C110.525 35.0838 111.408 37.3 113.169 39.0806C114.931 40.8612 117.079 41.7515 119.614 41.7515C121.921 41.7515 123.948 40.8574 125.702 39.0654C127.456 37.2735 128.331 35.1785 128.331 32.7766C128.331 30.2232 127.448 28.0296 125.687 26.1884C123.925 24.351 121.86 23.4304 119.5 23.4304C117.14 23.4304 114.908 24.3018 113.154 26.0445C111.4 27.7872 110.525 29.9163 110.525 32.4318V32.4356Z" fill="white"/>
  <path d="M145.016 50.83V0H155.248V50.83H145.016Z" fill="white"/>
  <path d="M178.536 50.8417V0.0117188H189.015V9.99815H195.932V19.3292H189.015V50.8379H178.536V50.8417Z" fill="white"/>
  <path d="M161.776 50.83V14.5742H172.009V50.83H161.776Z" fill="white"/>
  <path d="M166.894 10.3997C169.763 10.3997 172.088 8.0743 172.088 5.20573C172.088 2.33716 169.763 0.0117188 166.894 0.0117188C164.026 0.0117188 161.7 2.33716 161.7 5.20573C161.7 8.0743 164.026 10.3997 166.894 10.3997Z" fill="white"/>
  <path d="M10.229 71.8727V63.5039H13.3659C14.0099 63.5039 14.5479 63.6251 14.9873 63.8638C15.423 64.1025 15.7564 64.4321 15.9799 64.8488C16.2034 65.2655 16.3171 65.7429 16.3171 66.2733C16.3171 66.8037 16.2034 67.2848 15.9799 67.7015C15.7526 68.1183 15.4192 68.4441 14.9797 68.6827C14.5403 68.9214 13.9947 69.0389 13.3507 69.0389H11.2708V67.7925H13.1461C13.5212 67.7925 13.8319 67.7281 14.0705 67.5955C14.3092 67.4629 14.4872 67.2848 14.6047 67.0575C14.7183 66.8302 14.779 66.565 14.779 66.2695C14.779 65.974 14.7221 65.7126 14.6047 65.4853C14.4872 65.258 14.3092 65.0837 14.0705 64.9549C13.8281 64.8299 13.5212 64.7655 13.1423 64.7655H11.752V71.8651H10.2366L10.229 71.8727Z" fill="white"/>
  <path d="M27.8681 67.6868C27.8681 68.5884 27.7014 69.3613 27.3642 70.0015C27.0271 70.6418 26.5687 71.1343 25.9928 71.4752C25.417 71.8162 24.7578 71.9867 24.0266 71.9867C23.2954 71.9867 22.64 71.8162 22.0604 71.4752C21.4807 71.1343 21.0223 70.6418 20.6889 70.0015C20.3518 69.3613 20.1851 68.5884 20.1851 67.6905C20.1851 66.7927 20.3518 66.016 20.6889 65.3758C21.0261 64.7355 21.4845 64.243 22.0604 63.9021C22.6362 63.5611 23.2954 63.3906 24.0266 63.3906C24.7578 63.3906 25.4132 63.5611 25.9928 63.9021C26.5724 64.243 27.0308 64.7317 27.3642 65.3758C27.7014 66.016 27.8681 66.7889 27.8681 67.6905V67.6868ZM26.3451 67.6868C26.3451 67.0541 26.2466 66.5161 26.0496 66.0804C25.8526 65.6448 25.5799 65.3114 25.2313 65.0879C24.8828 64.8643 24.4812 64.7507 24.0266 64.7507C23.572 64.7507 23.1704 64.8643 22.8218 65.0879C22.4733 65.3114 22.2005 65.6448 22.0035 66.0804C21.8065 66.5161 21.708 67.0541 21.708 67.6868C21.708 68.3194 21.8065 68.8574 22.0035 69.2931C22.2005 69.7288 22.4733 70.0621 22.8218 70.2857C23.1704 70.5092 23.572 70.6228 24.0266 70.6228C24.4812 70.6228 24.8828 70.5092 25.2313 70.2857C25.5799 70.0621 25.8526 69.7288 26.0496 69.2931C26.2466 68.8574 26.3451 68.3194 26.3451 67.6868Z" fill="white"/>
  <path d="M32.0698 71.8727V63.5039H35.2067C35.8507 63.5039 36.3887 63.6176 36.8282 63.8373C37.2638 64.0608 37.5972 64.3715 37.8208 64.7768C38.0443 65.1784 38.1579 65.6482 38.1579 66.1786C38.1579 66.709 38.0443 67.1787 37.817 67.5727C37.5897 67.9667 37.2563 68.2698 36.813 68.4858C36.3698 68.7017 35.828 68.8078 35.1878 68.8078H32.9525V67.55H34.9832C35.3582 67.55 35.6689 67.497 35.9076 67.3909C36.1462 67.2848 36.3243 67.1333 36.4417 66.9287C36.5554 66.7241 36.616 66.4779 36.616 66.1786C36.616 65.8793 36.5592 65.6292 36.4417 65.4171C36.3243 65.2049 36.1462 65.0458 35.9076 64.936C35.6689 64.8261 35.3582 64.7693 34.9794 64.7693H33.589V71.8689H32.0736L32.0698 71.8727ZM36.3925 68.0804L38.4648 71.8727H36.7751L34.7407 68.0804H36.3963H36.3925Z" fill="white"/>
  <path d="M41.9462 64.7731V63.5039H48.6215V64.7731H46.034V71.8689H44.5299V64.7731H41.9424H41.9462Z" fill="white"/>
  <path d="M52.728 71.8727H51.1104L54.054 63.5039H55.9255L58.8767 71.8727H57.2591L55.0239 65.2201H54.9595L52.728 71.8727ZM52.7811 68.5918H57.1946V69.8079H52.7811V68.5918Z" fill="white"/>
  <path d="M62.7412 71.8727V63.5039H65.9425C66.5486 63.5039 67.0487 63.5986 67.4541 63.788C67.8557 63.9775 68.1549 64.2351 68.3557 64.5609C68.5565 64.8867 68.655 65.258 68.655 65.6709C68.655 66.0119 68.5906 66.3036 68.458 66.5423C68.3254 66.7809 68.1512 66.9779 67.9314 67.1295C67.7117 67.281 67.4654 67.3871 67.1927 67.4515V67.5349C67.4882 67.55 67.7761 67.6409 68.0489 67.8076C68.3216 67.9705 68.5452 68.2054 68.7194 68.5047C68.8937 68.804 68.9808 69.1677 68.9808 69.592C68.9808 70.0163 68.8748 70.4141 68.6664 70.7589C68.458 71.1036 68.1398 71.3764 67.7193 71.5734C67.2988 71.7741 66.7646 71.8727 66.1281 71.8727H62.7412ZM64.2566 67.0613H65.7568C66.0183 67.0613 66.2531 67.012 66.4653 66.9173C66.6737 66.8188 66.8403 66.6824 66.9616 66.5044C67.0828 66.3263 67.1434 66.1142 67.1434 65.8679C67.1434 65.5421 67.0298 65.2769 66.8025 65.0685C66.5752 64.8602 66.238 64.7541 65.7909 64.7541H64.2604V67.0613H64.2566ZM64.2566 70.6035H65.8856C66.435 70.6035 66.8328 70.4974 67.0752 70.2853C67.3177 70.0731 67.4427 69.8041 67.4427 69.4708C67.4427 69.2245 67.3821 68.9972 67.2571 68.8002C67.1321 68.6032 66.9616 68.4441 66.7343 68.3267C66.5069 68.2092 66.238 68.1524 65.9273 68.1524H64.2566V70.6035Z" fill="white"/>
  <path d="M73.0605 71.8727V63.5039H74.5759V70.5997H78.2621V71.8689H73.0605V71.8727Z" fill="white"/>
  <path d="M82.3354 71.8727V63.5039H87.7757V64.7731H83.8508V67.0461H87.4954V68.3153H83.8508V70.5997H87.8098V71.8689H82.3354V71.8727Z" fill="white"/>
  <path d="M97.7051 71.8727V63.5039H100.842C101.486 63.5039 102.024 63.6176 102.463 63.8373C102.899 64.0608 103.232 64.3715 103.456 64.7768C103.68 65.1784 103.793 65.6482 103.793 66.1786C103.793 66.709 103.68 67.1787 103.452 67.5727C103.225 67.9667 102.892 68.2698 102.448 68.4858C102.009 68.6979 101.463 68.8078 100.823 68.8078H98.5878V67.55H100.618C100.993 67.55 101.3 67.497 101.543 67.3909C101.785 67.2848 101.96 67.1333 102.077 66.9287C102.191 66.7241 102.251 66.4779 102.251 66.1786C102.251 65.8793 102.191 65.6292 102.077 65.4171C101.96 65.2049 101.781 65.0458 101.543 64.936C101.304 64.8261 100.993 64.7693 100.615 64.7693H99.2243V71.8689H97.7089L97.7051 71.8727ZM102.028 68.0804L104.1 71.8727H102.41L100.376 68.0804H102.032H102.028Z" fill="white"/>
  <path d="M107.949 71.8727V63.5039H113.389V64.7731H109.465V67.0461H113.109V68.3153H109.465V70.5997H113.424V71.8689H107.949V71.8727Z" fill="white"/>
  <path d="M124.577 63.5039V71.8727H123.228L119.284 66.1748H119.216V71.8727H117.701V63.5039H119.057L122.997 69.2056H123.069V63.5039H124.577Z" fill="white"/>
  <path d="M128.615 64.7731V63.5039H135.29V64.7731H132.703V71.8689H131.199V64.7731H128.611H128.615Z" fill="white"/>
  <path d="M139.397 71.8727H137.78L140.723 63.5039H142.595L145.546 71.8727H143.928L141.693 65.2201H141.629L139.397 71.8727ZM139.45 68.5918H143.864V69.8079H139.45V68.5918Z" fill="white"/>
  <path d="M149.41 71.8727V63.5039H150.926V70.5997H154.612V71.8689H149.41V71.8727Z" fill="white"/>
  <path d="M168.845 65.8041C168.807 65.448 168.648 65.1714 168.364 64.9707C168.083 64.7699 167.716 64.6714 167.265 64.6714C166.951 64.6714 166.678 64.7206 166.451 64.8153C166.223 64.91 166.053 65.0389 165.932 65.2018C165.81 65.3647 165.75 65.5503 165.75 65.7625C165.75 65.9367 165.788 66.0883 165.871 66.2171C165.951 66.3459 166.06 66.452 166.201 66.5429C166.341 66.63 166.492 66.7058 166.663 66.7664C166.833 66.827 167.004 66.8763 167.174 66.9179L167.958 67.1149C168.273 67.1869 168.58 67.2892 168.871 67.4142C169.163 67.5392 169.428 67.6984 169.66 67.8878C169.891 68.0772 170.076 68.3083 170.213 68.5773C170.349 68.8463 170.417 69.1645 170.417 69.5244C170.417 70.0131 170.292 70.445 170.042 70.8163C169.792 71.1875 169.428 71.4793 168.959 71.6876C168.485 71.896 167.917 72.0021 167.246 72.0021C166.576 72.0021 166.03 71.8998 165.553 71.699C165.075 71.4982 164.7 71.2027 164.435 70.8163C164.166 70.4298 164.022 69.9601 164 69.4032H165.492C165.515 69.6949 165.602 69.9373 165.761 70.1306C165.92 70.3238 166.125 70.4677 166.379 70.5625C166.633 70.6572 166.92 70.7064 167.235 70.7064C167.549 70.7064 167.852 70.6572 168.102 70.5587C168.353 70.4602 168.546 70.32 168.69 70.1419C168.83 69.9639 168.902 69.7555 168.906 69.5168C168.906 69.3009 168.837 69.119 168.712 68.9751C168.587 68.8311 168.413 68.7137 168.186 68.6152C167.958 68.5167 167.701 68.4333 167.398 68.3576L166.447 68.1113C165.757 67.9333 165.212 67.6643 164.814 67.3044C164.416 66.9445 164.215 66.4633 164.215 65.8648C164.215 65.3722 164.348 64.9403 164.617 64.5691C164.886 64.1978 165.25 63.9099 165.716 63.7053C166.178 63.5007 166.705 63.3984 167.288 63.3984C167.871 63.3984 168.402 63.5007 168.849 63.7053C169.296 63.9099 169.648 64.194 169.906 64.5577C170.163 64.9214 170.292 65.3381 170.3 65.8079H168.841L168.845 65.8041Z" fill="white"/>
  <path d="M174.528 71.8727V63.5039H179.968V64.7731H176.043V67.0461H179.688V68.3153H176.043V70.5997H180.002V71.8689H174.528V71.8727Z" fill="white"/>
  <path d="M184.279 71.8727V63.5039H187.416C188.06 63.5039 188.598 63.6176 189.038 63.8373C189.473 64.0608 189.807 64.3715 190.03 64.7768C190.254 65.1784 190.367 65.6482 190.367 66.1786C190.367 66.709 190.254 67.1787 190.026 67.5727C189.799 67.9667 189.466 68.2698 189.022 68.4858C188.583 68.6979 188.037 68.8078 187.397 68.8078H185.162V67.55H187.193C187.568 67.55 187.875 67.497 188.117 67.3909C188.359 67.2848 188.534 67.1333 188.651 66.9287C188.765 66.7241 188.825 66.4779 188.825 66.1786C188.825 65.8793 188.765 65.6292 188.651 65.4171C188.534 65.2049 188.356 65.0458 188.117 64.936C187.878 64.8261 187.568 64.7693 187.189 64.7693H185.798V71.8689H184.283L184.279 71.8727ZM188.602 68.0804L190.674 71.8727H188.985L186.95 68.0804H188.606H188.602Z" fill="white"/>
  <path d="M195.421 63.5039L197.599 70.0883H197.687L199.861 63.5039H201.528L198.577 71.8727H196.705L193.762 63.5039H195.425H195.421Z" fill="white"/>
  <path d="M206.908 63.5039V71.8727H205.393V63.5039H206.908Z" fill="white"/>
  <path d="M218.474 66.3268H216.947C216.905 66.0768 216.822 65.8532 216.705 65.66C216.587 65.4668 216.443 65.3001 216.269 65.1637C216.095 65.0274 215.898 64.9251 215.674 64.8569C215.454 64.7887 215.212 64.7508 214.958 64.7508C214.503 64.7508 214.102 64.8645 213.75 65.0918C213.397 65.3191 213.124 65.6525 212.924 66.0881C212.727 66.5238 212.624 67.058 212.624 67.6869C212.624 68.3158 212.723 68.8651 212.924 69.3045C213.124 69.7402 213.397 70.0698 213.75 70.2933C214.102 70.5169 214.5 70.6267 214.951 70.6267C215.201 70.6267 215.435 70.5926 215.655 70.5282C215.875 70.46 216.072 70.3615 216.246 70.2327C216.42 70.1039 216.572 69.941 216.693 69.7516C216.814 69.5622 216.898 69.3424 216.943 69.0962L218.47 69.1038C218.413 69.5016 218.288 69.8728 218.103 70.2251C217.913 70.5737 217.667 70.8805 217.36 71.1457C217.053 71.4109 216.697 71.6193 216.288 71.7671C215.879 71.9148 215.428 71.9906 214.928 71.9906C214.193 71.9906 213.537 71.8201 212.958 71.4791C212.382 71.1382 211.927 70.6457 211.594 70.0054C211.261 69.3614 211.098 68.5923 211.098 67.6944C211.098 66.7966 211.264 66.0199 211.602 65.3797C211.935 64.7394 212.393 64.2469 212.969 63.906C213.545 63.565 214.2 63.3945 214.932 63.3945C215.398 63.3945 215.829 63.4589 216.231 63.5915C216.633 63.7241 216.989 63.9135 217.303 64.1674C217.618 64.4212 217.875 64.7281 218.076 65.0918C218.281 65.4555 218.413 65.8684 218.474 66.3344V66.3268Z" fill="white"/>
  <path d="M222.63 71.8727V63.5039H228.071V64.7731H224.146V67.0461H227.79V68.3153H224.146V70.5997H228.105V71.8689H222.63V71.8727Z" fill="white"/>
  <path d="M71.886 14.5781H61.6533V20.6738H71.886V14.5781Z" fill="white"/>
  <path d="M83.6042 14.5742V35.6041C83.6042 38.8394 80.9788 41.4648 77.7434 41.4648C74.508 41.4648 71.8826 38.8394 71.8826 35.6041V29.6486L61.9189 39.6615C63.4684 49.8563 71.3901 51.4892 74.5156 51.7316C74.9286 51.7506 75.3453 51.7657 75.7848 51.7657C81.6531 51.7657 82.8654 49.5949 83.6042 48.9395V50.83H93.8369V14.5742H83.6042Z" fill="white"/>
  <path d="M30.1222 40.4761H24.4054C16.5026 39.976 10.244 33.4106 10.244 25.379C10.244 17.3474 17.0178 10.2478 25.3752 10.2478C33.7326 10.2478 40.5064 17.0216 40.5064 25.379C40.5064 26.8149 40.3018 28.2014 39.9305 29.516L45.6208 35.2328L50.2125 30.6185C50.5686 28.9288 50.758 27.1748 50.758 25.379C50.758 11.3617 39.3964 0 25.379 0C11.3616 0 0 11.3617 0 25.379C0 35.2442 5.63347 43.791 13.8583 47.9886C17.3171 49.7541 21.2306 50.758 25.379 50.758H40.3927L30.126 40.4761H30.1222Z" fill="white"/>
  <path d="M61.6536 24.3867L45.617 40.4991L38.3393 33.1874C37.074 35.2862 35.3123 37.0516 33.2173 38.3245L45.6359 50.7621L71.8863 24.3867H61.6536Z" fill="#FF6E06"/>
  <path d="M208.461 56.9358H219.296L238.337 10.2617H227.604L219.372 31.7007L211.89 10.2617H201.032L213.598 44.0209L208.461 56.9358Z" fill="white"/>
</svg>