<svg xmlns="http://www.w3.org/2000/svg" width="120" height="29" viewBox="0 0 120 29" fill="none">
  <path d="M65.6661 25.5962V23.3549C65.1568 24.2629 64.4396 24.9324 63.5164 25.3635C62.5932 25.7946 61.4105 26.0101 59.9723 26.0101C57.2733 26.0101 55.0186 25.0888 53.2085 23.2462C51.4002 21.4036 50.4941 19.1166 50.4941 16.3832C50.4941 15.0995 50.7211 13.8825 51.1751 12.7323C51.6291 11.5821 52.2757 10.5692 53.1169 9.69562C54.0249 8.73235 55.0301 8.02277 56.1383 7.56307C57.2447 7.10337 58.4902 6.87448 59.8731 6.87448C61.256 6.87448 62.3433 7.09575 63.3008 7.53828C64.2584 7.98081 65.029 8.65033 65.6165 9.54684V7.3399H69.7652V25.5981H65.6661V25.5962ZM55.6481 16.3317C55.6481 17.665 56.0925 18.7809 56.9795 19.6774C57.8665 20.5739 58.948 21.0221 60.2241 21.0221C61.3857 21.0221 62.4062 20.572 63.2894 19.6697C64.1725 18.7675 64.6132 17.7127 64.6132 16.5033C64.6132 15.2177 64.1687 14.1133 63.2818 13.1863C62.3948 12.2612 61.3552 11.7976 60.1669 11.7976C58.9785 11.7976 57.855 12.2364 56.9719 13.1138C56.0887 13.9912 55.6481 15.0632 55.6481 16.3298V16.3317Z" fill="#E8EAF6"/>
  <path d="M73.0142 25.5924V0H78.1662V25.5924H73.0142Z" fill="#E8EAF6"/>
  <path d="M89.8911 25.5981V0.0057373H95.1672V5.03381H98.6502V9.73188H95.1672V25.5962H89.8911V25.5981Z" fill="#E8EAF6"/>
  <path d="M81.4526 25.5924V7.33803H86.6047V25.5924H81.4526Z" fill="#E8EAF6"/>
  <path d="M84.0292 5.23601C85.4735 5.23601 86.6443 4.06518 86.6443 2.62089C86.6443 1.17659 85.4735 0.00575256 84.0292 0.00575256C82.5849 0.00575256 81.4141 1.17659 81.4141 2.62089C81.4141 4.06518 82.5849 5.23601 84.0292 5.23601Z" fill="#E8EAF6"/>
  <path d="M36.194 7.33989H31.042V10.409H36.194V7.33989Z" fill="#E8EAF6"/>
  <path d="M42.0936 7.338V17.9263C42.0936 19.5553 40.7717 20.8772 39.1427 20.8772C37.5138 20.8772 36.1919 19.5553 36.1919 17.9263V14.9278L31.1753 19.9692C31.9554 25.1022 35.9439 25.9243 37.5176 26.0464C37.7255 26.0559 37.9353 26.0635 38.1566 26.0635C41.1113 26.0635 41.7216 24.9706 42.0936 24.6406V25.5924H47.2457V7.338H42.0936Z" fill="#E8EAF6"/>
  <path d="M15.1662 20.3793H12.2879C8.3089 20.1275 5.15777 16.8219 5.15777 12.7781C5.15777 8.73427 8.56831 5.15968 12.7762 5.15968C16.984 5.15968 20.3946 8.57022 20.3946 12.7781C20.3946 13.501 20.2916 14.1991 20.1046 14.861L22.9696 17.7394L25.2815 15.4161C25.4608 14.5654 25.5562 13.6822 25.5562 12.7781C25.5562 5.72048 19.8357 0 12.7781 0C5.72047 0 0 5.72048 0 12.7781C0 17.7451 2.8364 22.0483 6.9775 24.1618C8.71901 25.0507 10.6894 25.5562 12.7781 25.5562H20.3373L15.1681 20.3793H15.1662Z" fill="#E8EAF6"/>
  <path d="M31.042 12.2783L22.9677 20.3908L19.3035 16.7094C18.6664 17.7661 17.7794 18.655 16.7246 19.2959L22.9773 25.5581L36.1941 12.2783H31.042Z" fill="#E8EAF6"/>
  <path d="M104.958 28.6672H110.413L120 5.1673H114.596L110.451 15.9616L106.684 5.1673H101.217L107.544 22.1647L104.958 28.6672Z" fill="#E8EAF6"/>
</svg>