<svg width="1360" height="958" viewBox="0 0 1360 958" fill="none" xmlns="http://www.w3.org/2000/svg">
<path d="M1127.02 766.95C1127.35 767.34 1127.63 767.75 1127.87 768.2L1141.82 793.78L1155.71 812.3C1156.08 812.79 1156.39 813.33 1156.63 813.9L1165.49 834.65L1170.59 828.01C1172.97 824.93 1177.31 824.17 1180.58 826.26L1189.27 831.79C1190.19 832.38 1190.98 833.16 1191.57 834.08L1204.2 853.82C1204.73 854.64 1205.09 855.57 1205.26 856.53L1208.12 872.27L1216.2 883.75C1217.5 882.99 1219.01 882.58 1220.6 882.76L1239.55 884.35C1240.76 884.45 1241.93 884.84 1242.96 885.5L1260.33 896.55C1261.23 897.12 1262 897.88 1262.58 898.77L1279.16 924.03C1279.64 924.76 1279.99 925.56 1280.19 926.42L1284.14 943C1284.21 943.3 1284.26 943.6 1284.3 943.91L1285.56 955.18L1287.83 957.12L1290.18 958L1297.69 954.99L1303.62 948.39C1304.97 946.88 1306.88 945.99 1308.89 945.91L1326.32 945.18L1338.48 939.42L1348.35 927.8L1346.93 922.1C1346.86 921.83 1346.81 921.55 1346.77 921.28L1345.19 909.43C1345.04 908.29 1345.15 907.14 1345.51 906.05L1348.08 898.35L1346.81 890.72C1346.28 887.53 1347.84 884.36 1350.69 882.84L1358.97 878.43L1360 867.56L1357.42 860.46C1357.16 859.73 1357.01 858.97 1356.98 858.2L1354.63 800.24L1348.61 764.85L1327.11 725.69L1309.91 697.56L1297.48 672.01L1284.16 658.69C1283.43 657.96 1282.85 657.08 1282.48 656.11L1268.27 619.79C1267.4 617.58 1267.64 615.08 1268.89 613.07L1272.83 606.75C1273.04 606.41 1273.29 606.08 1273.55 605.77L1275.59 603.44L1270.84 594.91L1252 577.57C1251.81 577.39 1251.62 577.2 1251.45 577L1227.76 550.15C1227.45 549.8 1227.17 549.41 1226.92 549L1208.76 518.2L1182.65 472.3C1182.46 471.97 1182.3 471.62 1182.16 471.27L1163.94 423.69C1163.84 423.42 1163.75 423.14 1163.68 422.86L1154.84 388.11L1139.65 387.14L1135.04 386.85L1114.86 384.06L1110.61 383.47L1109.94 384.42L1116.53 402.88C1116.88 403.86 1117.03 404.91 1116.94 405.96L1115.36 427.28C1115.19 429.56 1113.99 431.65 1112.09 432.94C1112.08 432.94 1112.06 432.94 1112.05 432.96C1111.22 433.52 1110.28 433.84 1109.31 434.03C1109.06 434.08 1108.84 434.11 1108.59 434.14C1108.34 434.17 1108.1 434.25 1107.86 434.25C1107.14 434.25 1106.41 434.13 1105.7 433.92C1105.67 433.92 1105.65 433.92 1105.62 433.92L1092.99 429.98C1091.49 429.51 1090.22 428.6 1089.3 427.42C1088.38 426.24 1087.81 424.78 1087.72 423.21L1087.32 416.06L1072.53 415.97L1046.41 419.2L888.02 428.72L848.73 427.95C846.79 427.91 844.94 427.12 843.57 425.75L836.46 418.65C836.11 418.3 835.8 417.92 835.52 417.5L832.81 413.44L825.65 402.7H799.18L787.15 403.85L766.68 405.82L642.06 420.02L598.32 425.58L597.74 431.09L603.51 436.86L615.72 446.02C615.97 446.21 616.09 446.5 616.31 446.72C616.88 447.27 617.45 447.81 617.82 448.5C618.01 448.86 618.03 449.27 618.16 449.66C618.37 450.27 618.65 450.85 618.7 451.5L620.95 482.21L627.44 481.07L656.07 471.01C656.68 470.8 657.31 470.66 657.95 470.61L687.16 468.24L707.99 465.14C708.94 465.01 709.89 465.04 710.8 465.26L747.91 473.94C748.44 474.07 748.96 474.25 749.45 474.48L788.93 493.43C789.58 493.74 790.18 494.14 790.71 494.62L797.54 500.79L810.47 505.82C811.65 506.27 812.7 507.03 813.52 508.01L821.42 517.49C822.35 518.61 822.94 519.98 823.11 521.42L823.54 525.1L830.22 522.42C831.11 522.07 832.06 521.88 833.01 521.88H850.04L864.86 513.8L882.3 497.12C883.8 495.68 885.86 494.91 887.89 495.04L893.76 495.36C893.46 494.43 893.35 493.44 893.43 492.45L894.22 482.97C894.5 479.63 896.95 476.88 900.23 476.22L919.97 472.27C920.46 472.17 920.95 472.12 921.45 472.12H934.08C935.25 472.12 936.39 472.39 937.44 472.91L951.21 479.79L971.28 486.73C972.85 487.28 974.2 488.33 975.12 489.73L985.57 505.76L996.59 509.64C998.78 510.41 1000.49 512.15 1001.22 514.35L1005.73 527.9L1019.43 534.42C1020.72 535.03 1021.81 536.01 1022.57 537.22L1029.03 547.56L1035.95 549.87L1060.65 556.02C1062.95 556.59 1064.84 558.21 1065.75 560.39L1071.64 574.38L1085.94 591.69C1087.05 593.03 1087.66 594.73 1087.66 596.48V643.07C1087.66 643.82 1087.55 644.57 1087.32 645.3L1080.69 666.67L1082.02 677.97L1083.5 683.53C1083.55 683.5 1083.61 683.48 1083.66 683.46L1091.56 680.3C1092.96 679.75 1094.49 679.62 1095.93 679.93L1118.04 684.67C1121.23 685.35 1123.62 688.02 1123.94 691.27L1124.73 699.17C1124.89 700.76 1124.54 702.35 1123.73 703.73L1107.94 730.58C1107.71 730.98 1107.44 731.35 1107.14 731.7L1101.36 738.37L1114 751.58L1126.95 766.93L1127.02 766.95Z" fill="white"/>
<path opacity="0.3" d="M404.92 608.35C410.75 609.09 419.27 610.67 422.34 611.26C422.98 611.38 423.6 611.58 424.19 611.87L443.93 621.35C445.14 621.93 446.18 622.83 446.93 623.96L449.44 627.72H459.63C461.15 627.72 462.64 628.18 463.88 629.04L467 624.8C466.34 624.53 465.73 624.16 465.17 623.71L450.21 611.6L423.86 607.94C422.68 607.78 421.56 607.34 420.59 606.66L404.8 595.6C401.92 593.58 400.82 589.83 402.16 586.58L407.69 573.16C408.24 571.81 409.16 570.69 410.29 569.89C410.29 569.83 410.29 569.76 410.29 569.71V567.34C410.29 564.41 411.96 561.88 414.4 560.64C413.97 560.63 413.53 560.57 413.09 560.48L398.09 557.32C395.94 556.87 394.09 555.49 393.04 553.56L388.3 544.87C386.76 542.05 387.19 538.56 389.36 536.19L398.05 526.72C398.23 526.52 398.42 526.33 398.62 526.15L407.76 518.11L404.79 511.52C404.65 511.2 404.53 510.88 404.43 510.55L399.43 493.54L384.18 479.31C382.37 477.61 381.51 475.14 381.88 472.69L386.73 440.68L383.55 441.08L343.04 444.46L224.26 447.84C220.91 447.84 217.76 445.7 216.82 442.39L214.59 434.57C214.34 433.69 214.25 432.78 214.33 431.87L217.68 392.78C217.77 391.72 218.08 390.7 218.6 389.77L235.35 359.63L259.19 318.18L256.27 311.62C255.75 310.46 255.55 309.21 255.64 307.98C255.74 306.75 256.13 305.54 256.83 304.47C258.12 302.48 260.28 301.23 262.64 301.06L263.74 295.89L256.2 289.86C254.67 288.63 253.7 286.88 253.45 284.98C253.37 284.35 253.36 283.7 253.45 283.05L254.3 276.21L245.12 255.8C245.07 255.68 245.07 255.54 245.03 255.42C244.75 254.7 244.52 253.96 244.48 253.18L243.28 234.04L197.24 233.43L107.27 237.73L103.81 237.9H103.6L2.58984 238.03L2.65985 277.28L5.96985 322.15L8.99985 339.35L11.0898 342.78L20.5399 358.24C21.0199 359.03 21.3599 359.9 21.5199 360.82L25.6599 383.53L37.3599 398.31L45.7198 408.86C46.6598 410.05 47.2099 411.49 47.3199 412.99L48.2299 425.83L49.5898 427.2C51.1498 428.76 51.9499 430.92 51.7699 433.12L48.4199 474.44C48.3299 475.57 47.9798 476.67 47.3998 477.65L35.4799 497.81L40.1498 503.82C41.5998 505.69 42.0898 508.13 41.4698 510.41L38.2999 522.07L34.9998 557.16C34.9298 557.94 34.7299 558.69 34.4299 559.41L28.4599 573.34L28.9398 579.4L41.9899 575.17C42.6399 574.96 43.3199 574.84 44.0099 574.81L83.4899 573.22C84.4199 573.16 85.3499 573.32 86.2299 573.62L136.2 590.8L165.12 595.87L174.41 592.24L173.93 591.96C171.35 590.43 169.92 587.53 170.29 584.55C170.62 581.87 172.3 572.97 179.88 571.08C181.96 570.56 189.84 568 194.32 566.51C196.76 565.67 199.47 566.19 201.46 567.82L206.23 571.72L210.48 569.4C212.03 568.56 213.83 568.3 215.56 568.63L231.35 571.79C233.43 572.21 235.23 573.48 236.32 575.29L243.43 587.13C243.94 587.99 244.28 588.94 244.42 589.93L245.15 594.99L261.21 596.14C263.01 596.27 264.71 597.04 265.99 598.32L274.68 607.01C276.97 609.3 277.53 612.79 276.09 615.69L272.14 623.59C271.82 624.24 271.4 624.83 270.91 625.36L271.28 625.73L308.27 641.38L319.71 637.22L323.2 628.5C324.1 626.25 326.01 624.58 328.36 624L339.36 621.25L346.74 615.21C349.42 613.02 353.24 612.94 356.01 615.02L362.33 619.76C363.65 620.76 364.61 622.16 365.06 623.76L367.32 631.91L370.96 626.46C369.94 625.77 369.09 624.82 368.51 623.69C367.41 621.55 367.39 619.03 368.46 616.88L371.42 610.96L370.88 606.06C370.46 602.26 372.94 598.76 376.66 597.91L384.56 596.09L388.48 591.61C389.95 589.93 392.07 589.1 394.3 589.04C396.52 589.09 398.61 590.12 400 591.86L403.16 595.81C404.31 597.25 404.89 599.06 404.8 600.9C404.67 603.43 404.75 606.32 404.97 608.38L404.92 608.35Z" fill="white"/>
<path opacity="0.3" d="M497.19 324.41C497.13 324.02 497.11 323.63 497.11 323.24L497.9 254.55L501.85 102.84L501.06 21.79L501.18 17.13L501.04 0.0100098H472.46L364.69 8.70007L328.98 9.06006L328.68 18.47C328.68 18.76 328.57 19.0301 328.53 19.3201C328.48 19.6401 328.45 19.96 328.36 20.27C328.23 20.71 328.04 21.11 327.84 21.52C327.71 21.78 327.61 22.05 327.46 22.29C327.18 22.72 326.83 23.09 326.47 23.46C326.31 23.62 326.18 23.81 326.01 23.96C325.43 24.45 324.79 24.87 324.06 25.17L313.18 29.71L302.82 49.5701L304.45 52.8301C304.97 53.8801 305.24 55.0201 305.24 56.1901V68.47C305.24 69.28 305.11 70.0701 304.86 70.8101C304.13 73.0301 302.4 74.84 300.09 75.6L289.07 79.28L274.78 99.8101L276.94 106.28C277.64 108.38 277.37 110.65 276.27 112.5C275.9 113.12 275.45 113.69 274.9 114.2L262.33 125.79L258.26 153.32L256.67 159.74L261.53 167.03C263.03 169.27 263.18 172.06 262.09 174.39C261.73 175.17 261.23 175.89 260.59 176.52L257.6 179.51L262.1 189.27C262.46 190.05 262.68 190.88 262.76 191.73L264.72 212.94C264.73 213.08 264.69 213.21 264.7 213.35C264.72 213.95 264.71 214.55 264.6 215.13C264.55 215.39 264.42 215.62 264.34 215.87C264.21 216.28 264.12 216.7 263.92 217.09L258.15 228.25L259.36 250.9L268.83 271.96C269.4 273.21 269.6 274.61 269.43 275.97L268.84 280.74L276.72 287.04C278.94 288.82 279.97 291.7 279.37 294.48L276.02 310.12C275.69 311.68 274.88 313.04 273.77 314.07L274.42 315.54C274.91 316.63 275.12 317.82 275.06 318.98C275 320.15 274.67 321.3 274.07 322.35L248.38 367.01L232.47 395.66L229.38 431.76L229.63 432.63L342.16 429.44L388.46 425.23L390.57 425.04C390.57 425.04 390.57 425.04 390.58 425.04C393.25 424.73 395.9 425.84 397.51 427.99L399.74 430.97L400.85 432.45C400.87 432.48 400.87 432.52 400.9 432.55C402.06 434.14 402.57 436.13 402.27 438.08L397.28 471.01L411.13 483.94C412.11 484.86 412.83 486.02 413.21 487.32L418.56 505.52L419.51 507.23L428.69 492.31C430.67 489.09 434.75 487.85 438.2 489.41L444.37 492.21L474.87 483.49C475.92 483.2 477.02 483.13 478.08 483.29L488.34 484.87C489.22 485 490.07 485.3 490.85 485.73L496.25 488.73H516.28L517.44 487.48L510.52 415.7L497.14 324.4L497.19 324.41Z" fill="white"/>
<path opacity="0.3" d="M984.69 0L995.7 16.78C996.06 17.32 996.34 17.91 996.55 18.53L998.47 24.29L1009.41 37.41C1010.01 38.13 1010.47 38.96 1010.77 39.85L1012.02 43.62L1030.86 51.02C1031.47 51.26 1032.04 51.58 1032.57 51.97L1047.57 63.02C1048.13 63.42 1048.62 63.9101 1049.05 64.4501L1059.19 77.49L1068.96 83.0801C1069.45 83.3601 1069.91 83.7 1070.33 84.09L1080.59 93.5701C1081.26 94.1901 1081.81 94.91 1082.22 95.73L1087.92 107.14L1096.31 114.88L1115.76 123.86C1117.39 124.62 1118.69 125.92 1119.44 127.55L1132.86 156.76C1132.97 157 1133.07 157.26 1133.16 157.52L1139.75 177.29L1148.38 179.45C1149.61 179.75 1150.75 180.37 1151.68 181.23L1162.73 191.5C1163.6 192.31 1164.27 193.31 1164.68 194.44L1171 211.81L1173.33 219.35L1179.59 222.48L1184.63 219.73L1193.82 214.06L1214.72 191.14L1211.2 179.42C1210.54 177.22 1210.92 174.83 1212.25 172.95C1213.57 171.06 1215.68 169.89 1217.99 169.77L1229.44 169.13L1244.81 154.46C1245.35 153.95 1245.97 153.51 1246.64 153.18L1252.75 150.13L1262.7 135.21C1262.98 134.8 1263.29 134.41 1263.64 134.06L1276.39 121.31L1286.17 104.76C1287.17 103.06 1288.8 101.83 1290.71 101.32L1298.95 99.12L1303.06 89.14C1303.75 87.46 1305.03 86.09 1306.65 85.28L1310.74 83.23L1312.78 56.6901C1312.84 55.8801 1313.03 55.09 1313.35 54.35L1325.99 24.34C1326.36 23.45 1326.9 22.6401 1327.58 21.9501L1347.67 1.72998L1345.6 0.0200195H984.7L984.69 0Z" fill="white"/>
<path d="M1180.34 238.42C1180.27 238.42 1180.19 238.4 1180.11 238.41C1179.98 238.41 1179.85 238.46 1179.71 238.46C1179.57 238.46 1179.45 238.37 1179.32 238.37C1178.35 238.32 1177.39 238.13 1176.5 237.7C1176.45 237.68 1176.4 237.69 1176.36 237.67L1163.72 231.35C1161.88 230.43 1160.5 228.8 1159.9 226.84L1156.74 216.58L1151.16 201.27L1142.84 193.56L1132.09 190.87C1129.59 190.25 1127.59 188.4 1126.78 185.96L1119.01 162.66L1106.92 136.34L1088.91 128.03C1088.19 127.7 1087.54 127.26 1086.96 126.72L1076.7 117.24C1076.03 116.62 1075.48 115.9 1075.07 115.08L1069.37 103.67L1060.74 95.71L1050.43 89.8201C1049.58 89.3401 1048.83 88.68 1048.23 87.91L1037.81 74.51L1024.44 64.65L1003.25 56.3301C1001.18 55.5201 999.57 53.83 998.87 51.71L996.95 45.9501L986.01 32.8301C985.41 32.1101 984.95 31.28 984.65 30.39L982.59 24.21L968.9 3.34998L956.61 3.94006C955.14 4.03006 953.66 3.65 952.38 2.88L947.58 0H741.89L743.19 6.84998L759.45 44.79C759.61 45.16 759.74 45.5501 759.84 45.9501L778.8 124.19L786.52 147.24C786.61 147.51 786.68 147.8 786.75 148.08L793.76 181.6L803.49 210.81L815.37 226.39C816.15 227.41 816.65 228.61 816.83 229.88L818.6 242.23L824.13 244.54C826.74 245.62 828.52 248.08 828.74 250.9L829.53 261.17C829.61 262.24 829.46 263.32 829.09 264.33L823.35 279.99L820.67 287.3L818.41 302.33L817.82 309.64L825.14 329.39C825.4 330.09 825.55 330.81 825.59 331.55L827.17 357.61C827.23 358.57 827.1 359.52 826.8 360.44V360.45L824.21 368.21L829.63 371.23C830.04 371.46 830.31 371.85 830.67 372.15C831.13 372.53 831.65 372.86 832.01 373.33C832.31 373.74 832.43 374.24 832.64 374.69C832.87 375.18 833.19 375.61 833.31 376.14L833.36 376.36C833.36 376.36 833.36 376.38 833.37 376.39L833.4 376.54L837.08 392.72L845.28 405.03L847.62 408.54L852.06 412.98L887.72 413.7L1045.03 404.24L1071.16 401C1071.48 400.96 1071.79 400.94 1072.12 400.94L1094.48 401.07C1097.16 401.09 1099.52 402.51 1100.84 404.66C1101.28 405.37 1101.6 406.16 1101.78 407.01L1101.82 406.46L1094.46 385.85C1093.64 383.56 1093.99 381.01 1095.38 379.02L1100.91 371.12C1102.52 368.81 1105.3 367.56 1108.09 367.99C1108.09 367.99 1108.1 367.99 1108.11 367.99L1114.02 368.81L1136.52 371.93L1142.94 372.33L1151.23 372.84L1148.55 351.08C1148.45 350.22 1148.49 349.35 1148.68 348.5L1159.74 299.54C1159.8 299.27 1159.88 299 1159.97 298.74L1166.42 280.1L1164.42 269.43C1164.09 267.65 1164.41 265.83 1165.31 264.26L1180.33 238.42H1180.34Z" fill="white"/>
<path d="M815.22 380.43C814.36 379.95 813.61 379.31 813 378.55L809.84 374.6C808.25 372.61 807.78 369.95 808.58 367.53L810.33 362.29L812.07 357.07L810.64 333.58L803.13 313.31C802.75 312.28 802.59 311.17 802.69 310.07L803.48 300.59L805.91 284.31C805.91 284.31 805.91 284.31 805.91 284.3C805.98 283.8 806.11 283.3 806.28 282.82L814.4 260.68L814.09 256.64L808.86 254.46C806.42 253.44 804.69 251.21 804.31 248.59L802.21 233.95L790.76 218.93C790.26 218.27 789.87 217.54 789.61 216.75L779.35 185.96C779.26 185.68 779.19 185.4 779.12 185.12L772.11 151.59L764.35 128.31L764.09 127.2L745.94 52.4L745.39 50.16L729.05 12.04C728.83 11.54 728.68 11.02 728.57 10.49L726.57 0H516.63L516.08 21.74L516.87 102.96L512.92 254.83L512.14 322.82L525.47 413.84L532.68 481.63H538.09L541.82 473.72L548.79 452.82C549.84 449.69 552.76 447.68 555.92 447.68C556.61 447.68 557.3 447.78 557.99 447.97L569.05 451.13C571.05 451.7 572.72 453.07 573.67 454.92L588.67 484.13C589.21 485.19 589.5 486.37 589.5 487.57V492.35L604.7 486.39L603.8 455.89L594.06 448.58C593.77 448.37 593.51 448.13 593.26 447.88L584.57 439.19C582.97 437.58 582.17 435.34 582.41 433.09L583.99 418.08C584.36 414.61 587.06 411.85 590.52 411.41L640.26 405.09L765.11 390.87L798.41 387.69L820.09 387.11L819.25 382.68L815.21 380.43H815.22Z" fill="white"/>
<path opacity="0.3" d="M312.23 0.97998C312.2 0.64998 312.21 0.32 312.23 0H0V187.26L2.16 222.99L103.42 222.87L196.88 218.41H245.98L249.56 212.01L247.94 194.41L241.78 181.07C240.79 178.93 240.88 176.49 241.93 174.46C242.28 173.78 242.73 173.15 243.29 172.6L245.63 170.26L242.35 165.34C241.18 163.58 240.8 161.4 241.31 159.34L243.55 150.41L247.87 120.98C248 120.13 248.27 119.31 248.66 118.57C249.06 117.82 249.58 117.13 250.21 116.55L261.15 106.45L259.33 101.01C258.58 98.76 258.94 96.28 260.29 94.34L278.16 68.66C279.09 67.33 280.41 66.3401 281.95 65.8301L290.2 63.0701V57.98L287.65 52.87C286.57 50.71 286.59 48.17 287.71 46.03L301.11 20.34C301.93 18.78 303.26 17.56 304.88 16.88L313.23 13.4L312.22 1L312.23 0.97998Z" fill="white"/>
<path d="M1191 570.333C1183.65 570.333 1177.67 576.315 1177.67 583.658C1177.62 594.4 1190.49 603.307 1191 603.667C1191 603.667 1204.38 594.4 1204.33 583.667C1204.33 576.315 1198.35 570.333 1191 570.333ZM1191 590.333C1187.32 590.333 1184.33 587.35 1184.33 583.667C1184.33 579.983 1187.32 577 1191 577C1194.68 577 1197.67 579.983 1197.67 583.667C1197.67 587.35 1194.68 590.333 1191 590.333Z" fill="#FF9191"/>
<path d="M1118 503.333C1110.65 503.333 1104.67 509.315 1104.67 516.658C1104.62 527.4 1117.49 536.307 1118 536.667C1118 536.667 1131.38 527.4 1131.33 516.667C1131.33 509.315 1125.35 503.333 1118 503.333ZM1118 523.333C1114.32 523.333 1111.33 520.35 1111.33 516.667C1111.33 512.983 1114.32 510 1118 510C1121.68 510 1124.67 512.983 1124.67 516.667C1124.67 520.35 1121.68 523.333 1118 523.333Z" fill="#FF9191"/>
<path d="M1139 398.333C1131.65 398.333 1125.67 404.315 1125.67 411.658C1125.62 422.4 1138.49 431.307 1139 431.667C1139 431.667 1152.38 422.4 1152.33 411.667C1152.33 404.315 1146.35 398.333 1139 398.333ZM1139 418.333C1135.32 418.333 1132.33 415.35 1132.33 411.667C1132.33 407.983 1135.32 405 1139 405C1142.68 405 1145.67 407.983 1145.67 411.667C1145.67 415.35 1142.68 418.333 1139 418.333Z" fill="#FF9191"/>
<path d="M926 68.3334C918.649 68.3334 912.667 74.315 912.667 81.6584C912.619 92.4 925.494 101.307 926 101.667C926 101.667 939.382 92.4 939.334 81.6667C939.334 74.315 933.352 68.3334 926 68.3334ZM926 88.3334C922.317 88.3334 919.334 85.35 919.334 81.6667C919.334 77.9834 922.317 75 926 75C929.684 75 932.667 77.9834 932.667 81.6667C932.667 85.35 929.684 88.3334 926 88.3334Z" fill="#FF9191"/>
<path d="M657 161.333C649.649 161.333 643.667 167.315 643.667 174.658C643.619 185.4 656.494 194.307 657 194.667C657 194.667 670.382 185.4 670.334 174.667C670.334 167.315 664.352 161.333 657 161.333ZM657 181.333C653.317 181.333 650.334 178.35 650.334 174.667C650.334 170.983 653.317 168 657 168C660.684 168 663.667 170.983 663.667 174.667C663.667 178.35 660.684 181.333 657 181.333Z" fill="#FF9191"/>
<path d="M876 144.333C868.649 144.333 862.667 150.315 862.667 157.658C862.619 168.4 875.494 177.307 876 177.667C876 177.667 889.382 168.4 889.334 157.667C889.334 150.315 883.352 144.333 876 144.333ZM876 164.333C872.317 164.333 869.334 161.35 869.334 157.667C869.334 153.983 872.317 151 876 151C879.684 151 882.667 153.983 882.667 157.667C882.667 161.35 879.684 164.333 876 164.333Z" fill="#FF9191"/>
<path d="M1257 616.333C1249.65 616.333 1243.67 622.315 1243.67 629.658C1243.62 640.4 1256.49 649.307 1257 649.667C1257 649.667 1270.38 640.4 1270.33 629.667C1270.33 622.315 1264.35 616.333 1257 616.333ZM1257 636.333C1253.32 636.333 1250.33 633.35 1250.33 629.667C1250.33 625.983 1253.32 623 1257 623C1260.68 623 1263.67 625.983 1263.67 629.667C1263.67 633.35 1260.68 636.333 1257 636.333Z" fill="#FF9191"/>
<path d="M1167 755.333C1159.65 755.333 1153.67 761.315 1153.67 768.658C1153.62 779.4 1166.49 788.307 1167 788.667C1167 788.667 1180.38 779.4 1180.33 768.667C1180.33 761.315 1174.35 755.333 1167 755.333ZM1167 775.333C1163.32 775.333 1160.33 772.35 1160.33 768.667C1160.33 764.983 1163.32 762 1167 762C1170.68 762 1173.67 764.983 1173.67 768.667C1173.67 772.35 1170.68 775.333 1167 775.333Z" fill="#FF9191"/>
<path d="M1119 618.333C1107.24 618.333 1097.67 627.904 1097.67 639.653C1097.59 656.84 1118.19 671.091 1119 671.667C1119 671.667 1140.41 656.84 1140.33 639.667C1140.33 627.904 1130.76 618.333 1119 618.333ZM1119 650.333C1113.11 650.333 1108.33 645.56 1108.33 639.667C1108.33 633.773 1113.11 629 1119 629C1124.89 629 1129.67 633.773 1129.67 639.667C1129.67 645.56 1124.89 650.333 1119 650.333Z" fill="#FF5252"/>
</svg>
