<svg width="20" height="24" viewBox="0 0 20 24" fill="none" xmlns="http://www.w3.org/2000/svg">
<path d="M12.75 4.5C11.4844 4.5 10.5 3.51562 10.5 2.25C10.5 1.03125 11.4844 0 12.75 0C13.9688 0 15 1.03125 15 2.25C15 3.51562 13.9688 4.5 12.75 4.5ZM5.29688 14.9062C5.67188 15.7031 6.28125 16.4062 7.07812 16.9219L7.59375 17.2031L7.17188 18.1406C6.84375 18.9844 6 19.5 5.10938 19.5H1.5C0.65625 19.5 0 18.8438 0 18C0 17.2031 0.65625 16.5 1.5 16.5H4.59375L5.29688 14.9062ZM18 10.5C18.7969 10.5 19.5 11.2031 19.5 12C19.5 12.8438 18.7969 13.5 18 13.5H15.4688C14.5781 13.5 13.7812 13.0312 13.4062 12.2812L12.4688 10.3125L11.0156 13.9688L13.875 15.7031C14.7656 16.2188 15.1875 17.25 14.9062 18.2344L13.4062 22.9688C13.2188 23.625 12.6094 24 12 24C11.8125 24 11.6719 24 11.5312 23.9531C10.7344 23.7188 10.3125 22.875 10.5469 22.0781L11.8125 17.9531L7.82812 15.6094C6.5625 14.8594 6.04688 13.2188 6.60938 11.8594L8.39062 7.73438L7.6875 7.54688C7.3125 7.45312 6.84375 7.54688 6.51562 7.82812L4.64062 9.23438C3.98438 9.75 3.04688 9.65625 2.53125 9C2.01562 8.34375 2.15625 7.35938 2.8125 6.89062L4.6875 5.4375C5.76562 4.64062 7.125 4.3125 8.48438 4.64062L11.8125 5.625C13.0312 5.95312 14.1094 6.84375 14.6719 8.01562L15.8906 10.5H18Z" fill="#0D34E9"/>
</svg>
