<svg width="25" height="18" viewBox="0 0 25 18" fill="none" xmlns="http://www.w3.org/2000/svg">
<path d="M23.4844 5.25C23.8594 5.25 24.1406 5.625 24.0469 5.95312L23.7656 7.07812C23.7188 7.35938 23.4844 7.5 23.25 7.5H22.2656C22.9219 8.0625 23.3438 8.85938 23.3438 9.75V12C23.3438 12.7969 23.0156 13.4531 22.5938 13.9688V16.5C22.5938 17.3438 21.8906 18 21.0938 18H19.5938C18.75 18 18.0938 17.3438 18.0938 16.5V15H6.09375V16.5C6.09375 17.3438 5.39062 18 4.59375 18H3.09375C2.25 18 1.59375 17.3438 1.59375 16.5V13.9688C1.125 13.4531 0.84375 12.7969 0.84375 12V9.75C0.84375 8.85938 1.21875 8.0625 1.875 7.5H0.9375C0.65625 7.5 0.421875 7.35938 0.375 7.07812L0.09375 5.95312C0 5.625 0.28125 5.25 0.65625 5.25H3.42188L4.21875 3.32812C5.01562 1.3125 6.9375 0 9.09375 0H15.0469C17.2031 0 19.125 1.3125 19.9219 3.32812L20.7188 5.25H23.4844ZM6.98438 4.45312L6.09375 6.75H18.0938L17.1562 4.45312C16.7812 3.5625 15.9844 3 15.0469 3H9.09375C8.15625 3 7.35938 3.5625 6.98438 4.45312ZM4.59375 12C5.48438 12 6.84375 12.1406 6.84375 11.25C6.84375 10.3594 5.48438 9 4.59375 9C3.65625 9 3.09375 9.60938 3.09375 10.5C3.09375 11.4375 3.65625 12 4.59375 12ZM19.5938 12C20.4844 12 21.0938 11.4375 21.0938 10.5C21.0938 9.60938 20.4844 9 19.5938 9C18.6562 9 17.3438 10.3594 17.3438 11.25C17.3438 12.1406 18.6562 12 19.5938 12Z" fill="#0D34E9"/>
</svg>
