<svg xmlns="http://www.w3.org/2000/svg" width="32" height="32" viewBox="0 0 32 32" fill="none">
  <path d="M7.9974 2.66666C9.69844 2.66619 11.3673 3.13061 12.8235 4.00972C14.2798 4.88884 15.4681 6.14922 16.2601 7.65466C17.0601 6.52409 18.1199 5.60209 19.3503 4.96614C20.5806 4.33018 21.9457 3.99885 23.3307 3.99999H27.9974V7.33332C27.9974 9.63187 27.0843 11.8363 25.459 13.4616C23.8337 15.0869 21.6293 16 19.3307 16H17.3307V17.3333H23.9974V26.6667C23.9974 27.3739 23.7164 28.0522 23.2163 28.5523C22.7163 29.0524 22.038 29.3333 21.3307 29.3333H10.6641C9.95682 29.3333 9.27854 29.0524 8.77844 28.5523C8.27835 28.0522 7.9974 27.3739 7.9974 26.6667V17.3333H14.6641V14.6667H11.9974C9.52204 14.6667 7.14807 13.6833 5.39773 11.933C3.64739 10.1826 2.66406 7.80868 2.66406 5.33332V2.66666H7.9974ZM21.3307 20H10.6641V26.6667H21.3307V20ZM25.3307 6.66666H23.3307C21.7394 6.66666 20.2133 7.2988 19.0881 8.42402C17.9629 9.54923 17.3307 11.0754 17.3307 12.6667V13.3333H19.3307C20.1187 13.3333 20.8989 13.1781 21.6268 12.8766C22.3548 12.5751 23.0162 12.1331 23.5734 11.576C24.1305 11.0188 24.5725 10.3574 24.874 9.62942C25.1755 8.90147 25.3307 8.12125 25.3307 7.33332V6.66666ZM7.9974 5.33332H5.33073C5.33073 7.10143 6.03311 8.79713 7.28335 10.0474C8.53359 11.2976 10.2293 12 11.9974 12H14.6641C14.6641 10.2319 13.9617 8.53619 12.7114 7.28594C11.4612 6.0357 9.76551 5.33332 7.9974 5.33332Z" fill="#303030"/>
</svg>