<svg xmlns="http://www.w3.org/2000/svg" width="40" height="40" viewBox="0 0 40 40" fill="none">
  <path d="M18.334 21.6667V26.6667C18.334 27.1389 18.494 27.535 18.814 27.855C19.134 28.175 19.5295 28.3345 20.0007 28.3334C20.4718 28.3323 20.8679 28.1723 21.189 27.8534C21.5101 27.5345 21.6695 27.1389 21.6673 26.6667V21.6667H26.6673C27.1395 21.6667 27.5357 21.5067 27.8557 21.1867C28.1757 20.8667 28.3351 20.4712 28.334 20C28.3329 19.5289 28.1729 19.1334 27.854 18.8134C27.5351 18.4934 27.1395 18.3334 26.6673 18.3334H21.6673V13.3334C21.6673 12.8612 21.5073 12.4656 21.1873 12.1467C20.8673 11.8278 20.4718 11.6678 20.0007 11.6667C19.5295 11.6656 19.134 11.8256 18.814 12.1467C18.494 12.4678 18.334 12.8634 18.334 13.3334V18.3334H13.334C12.8618 18.3334 12.4662 18.4934 12.1473 18.8134C11.8284 19.1334 11.6684 19.5289 11.6673 20C11.6662 20.4712 11.8262 20.8673 12.1473 21.1884C12.4684 21.5095 12.864 21.6689 13.334 21.6667H18.334ZM20.0007 36.6667C17.6951 36.6667 15.5284 36.2289 13.5007 35.3534C11.4729 34.4778 9.70899 33.2906 8.20899 31.7917C6.70899 30.2928 5.52176 28.5289 4.64732 26.5C3.77288 24.4712 3.3351 22.3045 3.33399 20C3.33288 17.6956 3.77065 15.5289 4.64732 13.5C5.52399 11.4712 6.71121 9.70726 8.20899 8.20837C9.70676 6.70949 11.4707 5.52226 13.5007 4.64671C15.5307 3.77115 17.6973 3.33337 20.0007 3.33337C22.304 3.33337 24.4707 3.77115 26.5007 4.64671C28.5307 5.52226 30.2945 6.70949 31.7923 8.20837C33.2901 9.70726 34.4779 11.4712 35.3557 13.5C36.2334 15.5289 36.6707 17.6956 36.6673 20C36.664 22.3045 36.2262 24.4712 35.354 26.5C34.4818 28.5289 33.2945 30.2928 31.7923 31.7917C30.2901 33.2906 28.5262 34.4784 26.5007 35.355C24.4751 36.2317 22.3084 36.6689 20.0007 36.6667Z" fill="#4F6BFF"/>
</svg>