<svg xmlns="http://www.w3.org/2000/svg" width="34" height="34" viewBox="0 0 34 34" fill="none">
  <path d="M15 18.3333V23.3333C15 23.8056 15.16 24.2017 15.48 24.5217C15.8 24.8417 16.1956 25.0011 16.6667 25C17.1378 24.9989 17.5339 24.8389 17.855 24.52C18.1761 24.2011 18.3356 23.8056 18.3333 23.3333V18.3333H23.3333C23.8056 18.3333 24.2017 18.1733 24.5217 17.8533C24.8417 17.5333 25.0011 17.1378 25 16.6667C24.9989 16.1956 24.8389 15.8 24.52 15.48C24.2011 15.16 23.8056 15 23.3333 15H18.3333V10C18.3333 9.52778 18.1733 9.13222 17.8533 8.81333C17.5333 8.49445 17.1378 8.33444 16.6667 8.33333C16.1956 8.33222 15.8 8.49222 15.48 8.81333C15.16 9.13445 15 9.53 15 10V15H10C9.52778 15 9.13222 15.16 8.81334 15.48C8.49445 15.8 8.33445 16.1956 8.33334 16.6667C8.33222 17.1378 8.49222 17.5339 8.81334 17.855C9.13445 18.1761 9.53 18.3356 10 18.3333H15ZM16.6667 33.3333C14.3611 33.3333 12.1944 32.8956 10.1667 32.02C8.13889 31.1444 6.375 29.9572 4.875 28.4583C3.375 26.9594 2.18778 25.1956 1.31334 23.1667C0.438891 21.1378 0.00111322 18.9711 2.1097e-06 16.6667C-0.001109 14.3622 0.436669 12.1956 1.31334 10.1667C2.19 8.13778 3.37722 6.37389 4.875 4.875C6.37278 3.37611 8.13667 2.18889 10.1667 1.31333C12.1967 0.437778 14.3633 0 16.6667 0C18.97 0 21.1367 0.437778 23.1667 1.31333C25.1967 2.18889 26.9606 3.37611 28.4583 4.875C29.9561 6.37389 31.1439 8.13778 32.0217 10.1667C32.8994 12.1956 33.3367 14.3622 33.3333 16.6667C33.33 18.9711 32.8922 21.1378 32.02 23.1667C31.1478 25.1956 29.9606 26.9594 28.4583 28.4583C26.9561 29.9572 25.1922 31.145 23.1667 32.0217C21.1411 32.8983 18.9744 33.3356 16.6667 33.3333Z" fill="#F45D23"/>
</svg>