<svg width="38" height="31" viewBox="0 0 38 31" fill="none" xmlns="http://www.w3.org/2000/svg">
<path d="M29.1209 13.2422C30.2342 14.3555 30.2342 16.1719 29.1209 17.2266L17.1678 29.1797C16.1131 30.293 14.2967 30.293 13.1834 29.1797L0.820118 16.8164C0.292774 16.2891 -0.00019455 15.5859 -0.00019455 14.8242V2.8125C-0.00019455 1.28906 1.23027 0 2.81231 0H14.7654C15.5271 0 16.2303 0.351562 16.7576 0.878906L29.1209 13.2422ZM6.56231 9.375C8.08574 9.375 9.37481 8.14453 9.37481 6.5625C9.37481 5.03906 8.08574 3.75 6.56231 3.75C4.98027 3.75 3.74981 5.03906 3.74981 6.5625C3.74981 8.14453 4.98027 9.375 6.56231 9.375ZM36.6209 17.2266L24.6678 29.1797C23.6131 30.293 21.7967 30.293 20.6834 29.1797L30.8787 18.9844C31.8748 17.9883 32.4607 16.6406 32.4607 15.2344C32.4607 13.8281 31.8748 12.5391 30.8787 11.543L19.3943 0H22.2654C23.0271 0 23.7303 0.351562 24.2576 0.878906L36.6209 13.2422C37.7342 14.3555 37.7342 16.1719 36.6209 17.2266Z" fill="#0D34E9"/>
</svg>
