<svg xmlns="http://www.w3.org/2000/svg" width="10" height="14" viewBox="0 0 10 14" fill="none">
  <path d="M3.77854 10.7184L7.22854 6.58508H4.56187L5.0452 2.80175L1.96187 7.25175H4.27854L3.77854 10.7184ZM2.7452 8.58508H0.678535C0.411869 8.58508 0.214535 8.46575 0.0865353 8.22708C-0.0414647 7.98842 -0.0274649 7.75775 0.128535 7.53508L5.11187 0.368417C5.22298 0.212862 5.36742 0.104639 5.5452 0.0437506C5.72298 -0.0171383 5.90631 -0.0144716 6.0952 0.0517506C6.28409 0.117973 6.42298 0.234639 6.51187 0.401751C6.60076 0.568862 6.63409 0.74664 6.61187 0.935084L6.07854 5.25175H8.66187C8.95076 5.25175 9.15365 5.37953 9.27054 5.63508C9.38742 5.89064 9.3512 6.12953 9.16187 6.35175L3.67853 12.9184C3.55631 13.0629 3.40631 13.1573 3.22854 13.2018C3.05076 13.2462 2.87854 13.2295 2.71187 13.1518C2.5452 13.074 2.41476 12.9546 2.32054 12.7938C2.22631 12.6329 2.19009 12.4578 2.21187 12.2684L2.7452 8.58508Z" fill="white"/>
</svg>