<svg width="27" height="30" viewBox="0 0 27 30" fill="none" xmlns="http://www.w3.org/2000/svg">
<path d="M8.67207 16.875H6.32832C5.91816 16.875 5.6252 16.582 5.6252 16.1719V13.8281C5.6252 13.4766 5.91816 13.125 6.32832 13.125H8.67207C9.02363 13.125 9.3752 13.4766 9.3752 13.8281V16.1719C9.3752 16.582 9.02363 16.875 8.67207 16.875ZM15.0002 16.1719C15.0002 16.582 14.6486 16.875 14.2971 16.875H11.9533C11.5432 16.875 11.2502 16.582 11.2502 16.1719V13.8281C11.2502 13.4766 11.5432 13.125 11.9533 13.125H14.2971C14.6486 13.125 15.0002 13.4766 15.0002 13.8281V16.1719ZM20.6252 16.1719C20.6252 16.582 20.2736 16.875 19.9221 16.875H17.5783C17.1682 16.875 16.8752 16.582 16.8752 16.1719V13.8281C16.8752 13.4766 17.1682 13.125 17.5783 13.125H19.9221C20.2736 13.125 20.6252 13.4766 20.6252 13.8281V16.1719ZM15.0002 21.7969C15.0002 22.207 14.6486 22.5 14.2971 22.5H11.9533C11.5432 22.5 11.2502 22.207 11.2502 21.7969V19.4531C11.2502 19.1016 11.5432 18.75 11.9533 18.75H14.2971C14.6486 18.75 15.0002 19.1016 15.0002 19.4531V21.7969ZM9.3752 21.7969C9.3752 22.207 9.02363 22.5 8.67207 22.5H6.32832C5.91816 22.5 5.6252 22.207 5.6252 21.7969V19.4531C5.6252 19.1016 5.91816 18.75 6.32832 18.75H8.67207C9.02363 18.75 9.3752 19.1016 9.3752 19.4531V21.7969ZM20.6252 21.7969C20.6252 22.207 20.2736 22.5 19.9221 22.5H17.5783C17.1682 22.5 16.8752 22.207 16.8752 21.7969V19.4531C16.8752 19.1016 17.1682 18.75 17.5783 18.75H19.9221C20.2736 18.75 20.6252 19.1016 20.6252 19.4531V21.7969ZM26.2502 6.5625V27.1875C26.2502 28.7695 24.9611 30 23.4377 30H2.8127C1.23066 30 0.000195503 28.7695 0.000195503 27.1875V6.5625C0.000195503 5.03906 1.23066 3.75 2.8127 3.75H5.6252V0.703125C5.6252 0.351562 5.91816 0 6.32832 0H8.67207C9.02363 0 9.3752 0.351562 9.3752 0.703125V3.75H16.8752V0.703125C16.8752 0.351562 17.1682 0 17.5783 0H19.9221C20.2736 0 20.6252 0.351562 20.6252 0.703125V3.75H23.4377C24.9611 3.75 26.2502 5.03906 26.2502 6.5625ZM23.4377 26.8359V9.375H2.8127V26.8359C2.8127 27.0703 2.92988 27.1875 3.16426 27.1875H23.0861C23.2619 27.1875 23.4377 27.0703 23.4377 26.8359Z" fill="#0D34E9"/>
</svg>
