<svg width="24" height="21" viewBox="0 0 24 21" fill="none" xmlns="http://www.w3.org/2000/svg">
<path d="M23.5312 8.57812C23.8125 8.85938 24 9.23438 24 9.65625V13.5H18V12.75C18 12.375 17.625 12 17.25 12H15.75C15.3281 12 15 12.375 15 12.75V13.5H9V12.75C9 12.375 8.625 12 8.25 12H6.75C6.32812 12 6 12.375 6 12.75V13.5H0V9.65625C0 9.23438 0.140625 8.85938 0.421875 8.57812L2.53125 6.46875C2.8125 6.1875 3.1875 6 3.60938 6H6V2.25C6 1.03125 6.98438 0 8.25 0H15.75C16.9688 0 18 1.03125 18 2.25V6.04688H20.3438C20.7656 6.04688 21.1406 6.1875 21.4219 6.46875L23.5312 8.57812ZM15 6V3H9V6H15ZM18 15.75V15H24V19.5C24 20.3438 23.2969 21 22.5 21H1.5C0.65625 21 0 20.3438 0 19.5V15H6V15.75C6 16.1719 6.32812 16.5 6.75 16.5H8.25C8.625 16.5 9 16.1719 9 15.75V15H15V15.75C15 16.1719 15.3281 16.5 15.75 16.5H17.25C17.625 16.5 18 16.1719 18 15.75Z" fill="#0D34E9"/>
</svg>
