<svg width="24" height="24" viewBox="0 0 24 24" fill="none" xmlns="http://www.w3.org/2000/svg">
<path d="M22.5469 2.48438C22.8281 3.60938 23.2031 5.34375 23.25 7.35938L15.8906 0C17.9531 0.046875 19.6875 0.421875 20.8125 0.703125C21.6562 0.9375 22.3125 1.64062 22.5469 2.48438ZM0.65625 20.8125C0.375 19.6875 0 17.9531 0 15.9375L7.3125 23.25C5.29688 23.25 3.51562 22.875 2.39062 22.5938C1.54688 22.3594 0.890625 21.6562 0.65625 20.8125ZM0.1875 12.9375C1.21875 5.76562 6.70312 1.125 12.8906 0.1875L23.0156 10.3594C21.9844 17.5312 16.5 22.1719 10.3125 23.0625L0.1875 12.9375ZM15.0469 7.125L13.7344 8.48438L12.375 7.125C12.2344 6.98438 12 6.98438 11.8594 7.125L11.3438 7.6875C11.2031 7.82812 11.2031 8.0625 11.3438 8.20312L12.6562 9.51562L11.625 10.5938L10.2656 9.28125C10.125 9.14062 9.89062 9.14062 9.75 9.28125L9.23438 9.79688C9.09375 9.9375 9.09375 10.1719 9.23438 10.3125L10.5469 11.6719L9.46875 12.7031L8.15625 11.3906C8.01562 11.25 7.78125 11.25 7.64062 11.3906L7.07812 11.9062C6.9375 12.0469 6.9375 12.2812 7.07812 12.4219L8.4375 13.7812L7.07812 15.0938C6.9375 15.2344 6.9375 15.4688 7.07812 15.6094L7.64062 16.1719C7.78125 16.3125 8.01562 16.3125 8.15625 16.1719L9.46875 14.8125L10.8281 16.1719C10.9688 16.3125 11.2031 16.3125 11.3438 16.1719L11.8594 15.6094C12 15.4688 12 15.2344 11.8594 15.0938L10.5469 13.7812L11.625 12.7031L12.9375 14.0156C13.0781 14.1562 13.3125 14.1562 13.4531 14.0156L13.9688 13.5C14.1562 13.3594 14.1562 13.125 13.9688 12.9844L12.6562 11.625L13.7344 10.5938L15.0469 11.9062C15.1875 12.0469 15.4219 12.0469 15.5625 11.9062L16.125 11.3906C16.2656 11.25 16.2656 11.0156 16.125 10.8281L14.7656 9.51562L16.125 8.20312C16.2656 8.0625 16.2656 7.82812 16.125 7.6875L15.5625 7.125C15.4219 6.98438 15.1875 6.98438 15.0469 7.125Z" fill="#0D34E9"/>
</svg>
