<svg width="34" height="30" viewBox="0 0 34 30" fill="none" xmlns="http://www.w3.org/2000/svg">
<path d="M7.67559 0H24.3162C22.1482 2.28516 20.8006 6.38672 20.8006 11.25V21.3867C20.8006 24.4922 20.0975 26.4844 19.3357 28.7695C19.0428 29.5312 18.3396 30 17.5193 30H1.11309C0.468555 30 -0.00019455 29.4141 0.175587 28.7695C1.46465 25.0195 2.05059 23.7891 2.05059 21.3867V11.25C2.05059 5.03906 4.51152 0 7.67559 0ZM5.80059 13.125C6.26934 13.125 6.73809 12.7148 6.73809 12.1875C6.73809 11.7188 6.26934 11.25 5.80059 11.25C5.27324 11.25 4.86309 11.7188 4.86309 12.1875C4.86309 12.7148 5.27324 13.125 5.80059 13.125ZM9.55059 13.125C10.0193 13.125 10.4881 12.7148 10.4881 12.1875C10.4881 11.7188 10.0193 11.25 9.55059 11.25C9.02324 11.25 8.61309 11.7188 8.61309 12.1875C8.61309 12.7148 9.02324 13.125 9.55059 13.125ZM13.3006 13.125C13.7693 13.125 14.2381 12.7148 14.2381 12.1875C14.2381 11.7188 13.7693 11.25 13.3006 11.25C12.7732 11.25 12.3631 11.7188 12.3631 12.1875C12.3631 12.7148 12.7732 13.125 13.3006 13.125ZM17.0506 13.125C17.5193 13.125 17.9881 12.7148 17.9881 12.1875C17.9881 11.7188 17.5193 11.25 17.0506 11.25C16.5232 11.25 16.1131 11.7188 16.1131 12.1875C16.1131 12.7148 16.5232 13.125 17.0506 13.125ZM28.3006 0C31.4061 0 33.9256 5.03906 33.9256 11.25C33.9256 17.5195 31.4061 22.5 28.3006 22.5C25.1365 22.5 22.6756 17.5195 22.6756 11.25C22.6756 5.03906 25.1365 0 28.3006 0ZM28.3006 15C29.2967 15 30.1756 13.3594 30.1756 11.25C30.1756 9.19922 29.2967 7.5 28.3006 7.5C27.2459 7.5 26.4256 9.19922 26.4256 11.25C26.4256 13.3594 27.2459 15 28.3006 15Z" fill="#0D34E9"/>
</svg>
