<svg xmlns="http://www.w3.org/2000/svg" width="40" height="29" viewBox="0 0 40 29" fill="none">
  <path d="M34.5455 7.25H25.4545V18.125H1.81818V23.5625H3.63636C3.63636 26.6437 6 29 9.09091 29C12.1818 29 14.5455 26.6437 14.5455 23.5625H25.4545C25.4545 26.6437 27.8182 29 30.9091 29C34 29 36.3636 26.6437 36.3636 23.5625H40V14.5L34.5455 7.25ZM9.09091 26.2812C7.63636 26.2812 6.36364 25.0125 6.36364 23.5625C6.36364 22.1125 7.63636 20.8437 9.09091 20.8437C10.5455 20.8437 11.8182 22.1125 11.8182 23.5625C11.8182 25.0125 10.5455 26.2812 9.09091 26.2812ZM30.9091 26.2812C29.4545 26.2812 28.1818 25.0125 28.1818 23.5625C28.1818 22.1125 29.4545 20.8437 30.9091 20.8437C32.3636 20.8437 33.6364 22.1125 33.6364 23.5625C33.6364 25.0125 32.3636 26.2812 30.9091 26.2812ZM29.0909 14.5V9.96875H33.6364L37.2727 14.5H29.0909ZM23.6364 9.96875C23.6364 13.4125 20.7273 16.3125 17.2727 16.3125H6.36364C2.90909 16.3125 0 13.4125 0 9.96875C0 6.525 2.90909 3.625 6.36364 3.625H7.27273V1.8125H5.45455V0H12.7273V1.8125H10.9091V3.625H17.2727C20.7273 3.625 23.6364 6.525 23.6364 9.96875Z" fill="white"/>
</svg>