<svg width="53" height="38" viewBox="0 0 53 38" fill="none" xmlns="http://www.w3.org/2000/svg">
<path d="M22.1172 29.7199H17.9196C12.117 29.3527 7.52168 24.532 7.52168 18.6347C7.52168 12.7375 12.4953 7.52455 18.6317 7.52455C24.7682 7.52455 29.7418 12.4983 29.7418 18.6347C29.7418 19.689 29.5916 20.7071 29.319 21.6724L33.4971 25.87L36.8685 22.4818C37.13 21.2412 37.2691 19.9533 37.2691 18.6347C37.2691 8.34238 28.9268 0 18.6345 0C8.34228 0 0 8.34238 0 18.6347C0 25.8783 4.13638 32.1539 10.1754 35.236C12.7151 36.5323 15.5886 37.2695 18.6345 37.2695H29.6584L22.12 29.7199H22.1172Z" fill="white"/>
<path d="M45.271 17.9059L33.4961 29.7365L28.1525 24.3678C27.2234 25.9089 25.9299 27.2052 24.3916 28.1398L33.51 37.2722L52.7843 17.9059H45.271Z" fill="#F45D23"/>
</svg>
