<svg width="150" height="150" viewBox="0 0 150 150" fill="none" xmlns="http://www.w3.org/2000/svg">
<rect width="150" height="150" fill="#0A0BA4"/>
<path d="M76.3678 94.8063H68.1371C56.7593 94.0863 47.7486 84.6338 47.7486 73.0704C47.7486 61.507 57.5011 51.2854 69.5334 51.2854C81.5658 51.2854 91.3182 61.0379 91.3182 73.0704C91.3182 75.1376 91.0237 77.1339 90.4891 79.0266L98.6816 87.2573L105.292 80.6138C105.805 78.1812 106.078 75.6558 106.078 73.0704C106.078 52.889 89.7201 36.5311 69.5389 36.5311C49.3577 36.5311 33 52.889 33 73.0704C33 87.2737 41.1107 99.5789 52.9521 105.622C57.932 108.164 63.5663 109.61 69.5389 109.61H91.1546L76.3732 94.8063H76.3678Z" fill="white"/>
<path d="M121.768 71.6412L98.6793 94.8389L88.2015 84.3118C86.3797 87.3336 83.8434 89.8754 80.8271 91.708L98.7066 109.615L136.5 71.6412H121.768Z" fill="#F45D23"/>
</svg>
